<?xml version="1.0" standalone="no"?>
<!DOCTYPE svg PUBLIC "-//W3C//DTD SVG 20010904//EN"
 "http://www.w3.org/TR/2001/REC-SVG-20010904/DTD/svg10.dtd">
<svg version="1.0" xmlns="http://www.w3.org/2000/svg"
 width="560.000000pt" height="550.000000pt" viewBox="0 0 560.000000 550.000000"
 preserveAspectRatio="xMidYMid meet">

<g transform="translate(0.000000,550.000000) scale(0.100000,-0.100000)"
fill="#000000" stroke="none">
<path d="M0 4781 c0 -566 3 -721 13 -725 9 -5 9 -7 0 -12 -10 -4 -13 -439 -13
-2015 l0 -2009 84 0 c58 0 86 4 90 13 5 9 7 9 12 -1 4 -9 384 -12 1852 -12
1207 0 1859 -3 1882 -10 22 -6 337 -10 857 -10 l823 0 0 2438 c0 2125 -2 2441
-15 2459 -13 18 -13 22 0 33 13 10 15 57 15 291 l0 279 -934 0 c-722 -1 -936
-4 -940 -13 -5 -9 -7 -9 -12 1 -8 18 -2530 18 -2537 -1 -4 -9 -6 -9 -6 1 -1 9
-125 12 -586 12 l-585 0 0 -719z m340 695 c0 -3 -4 -8 -10 -11 -5 -3 -10 -1
-10 4 0 6 5 11 10 11 6 0 10 -2 10 -4z m3430 -6 c0 -5 -5 -10 -11 -10 -5 0 -7
5 -4 10 3 6 8 10 11 10 2 0 4 -4 4 -10z m-2590 -50 c0 -5 -2 -10 -4 -10 -3 0
-8 5 -11 10 -3 6 -1 10 4 10 6 0 11 -4 11 -10z m3070 0 c0 -5 -4 -10 -10 -10
-5 0 -10 5 -10 10 0 6 5 10 10 10 6 0 10 -4 10 -10z m-4220 -4 c0 -3 -4 -8
-10 -11 -5 -3 -10 -1 -10 4 0 6 5 11 10 11 6 0 10 -2 10 -4z m960 -36 c0 -10
-4 -21 -9 -24 -12 -8 -22 20 -15 39 8 19 24 9 24 -15z m1400 -6 c0 -8 -5 -12
-10 -9 -6 4 -8 11 -5 16 9 14 15 11 15 -7z m2900 6 c0 -5 -4 -10 -10 -10 -5 0
-10 5 -10 10 0 6 5 10 10 10 6 0 10 -4 10 -10z m-1380 -10 c0 -5 -4 -10 -10
-10 -5 0 -10 5 -10 10 0 6 5 10 10 10 6 0 10 -4 10 -10z m1080 0 c0 -5 -4 -10
-10 -10 -5 0 -10 5 -10 10 0 6 5 10 10 10 6 0 10 -4 10 -10z m-2820 -40 c0 -5
-4 -10 -10 -10 -5 0 -10 5 -10 10 0 6 5 10 10 10 6 0 10 -4 10 -10z m-1550
-40 c0 -5 -5 -10 -11 -10 -5 0 -7 5 -4 10 3 6 8 10 11 10 2 0 4 -4 4 -10z m40
0 c0 -5 -2 -10 -4 -10 -3 0 -8 5 -11 10 -3 6 -1 10 4 10 6 0 11 -4 11 -10z
m1056 -36 c-4 -12 -10 -14 -17 -7 -5 5 -7 17 -3 27 4 12 10 14 17 7 5 -5 7
-17 3 -27z m3494 6 c0 -5 -4 -10 -10 -10 -5 0 -10 5 -10 10 0 6 5 10 10 10 6
0 10 -4 10 -10z m-3700 -20 c0 -5 -5 -10 -11 -10 -5 0 -7 5 -4 10 3 6 8 10 11
10 2 0 4 -4 4 -10z m945 -30 c3 -5 1 -10 -4 -10 -6 0 -11 5 -11 10 0 6 2 10 4
10 3 0 8 -4 11 -10z m-1205 -10 c0 -5 -4 -10 -10 -10 -5 0 -10 5 -10 10 0 6 5
10 10 10 6 0 10 -4 10 -10z m117 -12 c-3 -8 -6 -5 -6 6 -1 11 2 17 5 13 3 -3
4 -12 1 -19z m-447 -28 c0 -5 -4 -10 -10 -10 -5 0 -10 5 -10 10 0 6 5 10 10
10 6 0 10 -4 10 -10z m3942 -52 c-15 -15 -26 -4 -18 18 5 13 9 15 18 6 9 -9 9
-15 0 -24z m673 13 c3 -5 1 -12 -5 -16 -5 -3 -10 1 -10 9 0 18 6 21 15 7z
m-3045 -41 c0 -5 -4 -10 -10 -10 -5 0 -10 5 -10 10 0 6 5 10 10 10 6 0 10 -4
10 -10z m-1076 -21 c-3 -5 -10 -7 -15 -3 -5 3 -7 10 -3 15 3 5 10 7 15 3 5 -3
7 -10 3 -15z m2586 -89 c0 -5 -4 -10 -10 -10 -5 0 -10 5 -10 10 0 6 5 10 10
10 6 0 10 -4 10 -10z m-3750 -20 c0 -5 -4 -10 -10 -10 -5 0 -10 5 -10 10 0 6
5 10 10 10 6 0 10 -4 10 -10z m3020 -16 c0 -8 -5 -12 -10 -9 -6 4 -8 11 -5 16
9 14 15 11 15 -7z m-2845 -34 c-5 -8 -11 -8 -17 -2 -6 6 -7 16 -3 22 5 8 11 8
17 2 6 -6 7 -16 3 -22z m1321 -7 c-10 -10 -19 5 -10 18 6 11 8 11 12 0 2 -7 1
-15 -2 -18z m3336 -28 c0 -5 -5 -11 -11 -13 -6 -2 -11 4 -11 13 0 9 5 15 11
13 6 -2 11 -8 11 -13z m-4442 -5 c0 -5 -4 -10 -10 -10 -5 0 -10 5 -10 10 0 6
5 10 10 10 6 0 10 -4 10 -10z m-170 -16 c0 -8 -5 -12 -10 -9 -6 4 -8 11 -5 16
9 14 15 11 15 -7z m590 6 c0 -5 -5 -10 -11 -10 -5 0 -7 5 -4 10 3 6 8 10 11
10 2 0 4 -4 4 -10z m2380 0 c0 -5 -4 -10 -10 -10 -5 0 -10 5 -10 10 0 6 5 10
10 10 6 0 10 -4 10 -10z m835 -70 c3 -5 1 -10 -4 -10 -6 0 -11 5 -11 10 0 6 2
10 4 10 3 0 8 -4 11 -10z m625 0 c0 -5 -4 -10 -10 -10 -5 0 -10 5 -10 10 0 6
5 10 10 10 6 0 10 -4 10 -10z m-1273 -22 c-3 -8 -6 -5 -6 6 -1 11 2 17 5 13 3
-3 4 -12 1 -19z m-333 -29 c-3 -5 -10 -7 -15 -3 -5 3 -7 10 -3 15 3 5 10 7 15
3 5 -3 7 -10 3 -15z m596 11 c0 -5 -4 -10 -10 -10 -5 0 -10 5 -10 10 0 6 5 10
10 10 6 0 10 -4 10 -10z m-3320 -10 c0 -5 -4 -10 -10 -10 -5 0 -10 5 -10 10 0
6 5 10 10 10 6 0 10 -4 10 -10z m4328 -109 c-11 -18 -12 -18 -29 2 -15 20 -15
23 0 43 l16 22 13 -24 c10 -18 10 -28 0 -43z m-2278 49 c0 -5 -4 -10 -10 -10
-5 0 -10 5 -10 10 0 6 5 10 10 10 6 0 10 -4 10 -10z m-1910 -20 c0 -5 -2 -10
-4 -10 -3 0 -8 5 -11 10 -3 6 -1 10 4 10 6 0 11 -4 11 -10z m-310 -20 c0 -5
-4 -10 -10 -10 -5 0 -10 5 -10 10 0 6 5 10 10 10 6 0 10 -4 10 -10z m2744 -11
c-3 -5 -10 -7 -15 -3 -5 3 -7 10 -3 15 3 5 10 7 15 3 5 -3 7 -10 3 -15z m2262
-6 c-10 -10 -19 5 -10 18 6 11 8 11 12 0 2 -7 1 -15 -2 -18z m-88 -1 c2 -7 -3
-12 -12 -12 -9 0 -16 7 -16 16 0 17 22 14 28 -4z m-1028 -2 c0 -5 -4 -10 -10
-10 -5 0 -10 5 -10 10 0 6 5 10 10 10 6 0 10 -4 10 -10z m-3480 -10 c0 -5 -4
-10 -10 -10 -5 0 -10 5 -10 10 0 6 5 10 10 10 6 0 10 -4 10 -10z m2070 -10 c0
-5 -4 -10 -10 -10 -5 0 -10 5 -10 10 0 6 5 10 10 10 6 0 10 -4 10 -10z m2050
6 c0 -3 -4 -8 -10 -11 -5 -3 -10 -1 -10 4 0 6 5 11 10 11 6 0 10 -2 10 -4z
m-1959 -69 c-13 -13 -26 -3 -16 12 3 6 11 8 17 5 6 -4 6 -10 -1 -17z m-537
-18 c-3 -5 -10 -7 -15 -3 -5 3 -7 10 -3 15 3 5 10 7 15 3 5 -3 7 -10 3 -15z
m-127 -31 c-3 -8 -6 -5 -6 6 -1 11 2 17 5 13 3 -3 4 -12 1 -19z m2653 -13 c0
-8 -4 -15 -10 -15 -5 0 -10 7 -10 15 0 8 5 15 10 15 6 0 10 -7 10 -15z m-4914
-22 c-10 -10 -19 5 -10 18 6 11 8 11 12 0 2 -7 1 -15 -2 -18z m3440 -56 l-20
-28 -13 25 c-10 20 -11 31 -1 51 l12 26 21 -23 22 -23 -21 -28z m-2076 27 c0
-8 -5 -12 -10 -9 -6 4 -8 11 -5 16 9 14 15 11 15 -7z m3470 6 c0 -5 -4 -10
-10 -10 -5 0 -10 5 -10 10 0 6 5 10 10 10 6 0 10 -4 10 -10z m-955 -20 c3 -5
1 -10 -4 -10 -6 0 -11 5 -11 10 0 6 2 10 4 10 3 0 8 -4 11 -10z m-1685 -60 c0
-5 -4 -10 -10 -10 -5 0 -10 5 -10 10 0 6 5 10 10 10 6 0 10 -4 10 -10z m-1146
-29 c3 -5 0 -14 -8 -20 -10 -9 -15 -8 -19 3 -9 22 15 37 27 17z m-1054 -21 c0
-5 -4 -10 -10 -10 -5 0 -10 5 -10 10 0 6 5 10 10 10 6 0 10 -4 10 -10z m4330
-16 c0 -8 -5 -12 -10 -9 -6 4 -8 11 -5 16 9 14 15 11 15 -7z m712 1 c0 -5 -5
-11 -11 -13 -6 -2 -11 4 -11 13 0 9 5 15 11 13 6 -2 11 -8 11 -13z m-4092 -5
c0 -5 -4 -10 -10 -10 -5 0 -10 5 -10 10 0 6 5 10 10 10 6 0 10 -4 10 -10z
m1680 -20 c0 -5 -5 -10 -11 -10 -5 0 -7 5 -4 10 3 6 8 10 11 10 2 0 4 -4 4
-10z m-2630 -29 c0 -6 -4 -13 -10 -16 -5 -3 -10 1 -10 9 0 9 5 16 10 16 6 0
10 -4 10 -9z m1600 -17 c0 -8 -5 -12 -10 -9 -6 4 -8 11 -5 16 9 14 15 11 15
-7z m-1260 -4 c0 -5 -4 -10 -10 -10 -5 0 -10 5 -10 10 0 6 5 10 10 10 6 0 10
-4 10 -10z m4394 -52 c8 -5 7 -8 -1 -8 -6 0 -15 -10 -19 -22 l-6 -21 -18 23
c-16 22 -17 26 -2 48 14 22 16 22 25 5 6 -10 15 -21 21 -25z m-167 0 c-3 -8
-6 -5 -6 6 -1 11 2 17 5 13 3 -3 4 -12 1 -19z m73 -12 c0 -3 -4 -8 -10 -11 -5
-3 -10 -1 -10 4 0 6 5 11 10 11 6 0 10 -2 10 -4z m-3560 -26 c0 -5 -4 -10 -10
-10 -5 0 -10 5 -10 10 0 6 5 10 10 10 6 0 10 -4 10 -10z m2737 -42 c-3 -8 -6
-5 -6 6 -1 11 2 17 5 13 3 -3 4 -12 1 -19z m1003 -9 c0 -5 -4 -9 -10 -9 -5 0
-10 7 -10 16 0 8 5 12 10 9 6 -3 10 -10 10 -16z m-4150 7 c0 -3 -4 -8 -10 -11
-5 -3 -10 -1 -10 4 0 6 5 11 10 11 6 0 10 -2 10 -4z m2890 -11 c0 -8 -4 -15
-10 -15 -5 0 -10 7 -10 15 0 8 5 15 10 15 6 0 10 -7 10 -15z m1910 1 c0 -3 -4
-8 -10 -11 -5 -3 -10 -1 -10 4 0 6 5 11 10 11 6 0 10 -2 10 -4z m-3510 -56 c0
-5 -4 -10 -10 -10 -5 0 -10 5 -10 10 0 6 5 10 10 10 6 0 10 -4 10 -10z m-1170
-15 c0 -8 -4 -15 -9 -15 -13 0 -22 16 -14 24 11 11 23 6 23 -9z m3320 -4 c0
-6 -4 -13 -10 -16 -5 -3 -10 1 -10 9 0 9 5 16 10 16 6 0 10 -4 10 -9z m-1060
-47 c0 -8 -5 -12 -10 -9 -6 4 -8 11 -5 16 9 14 15 11 15 -7z m-1100 -14 c0 -5
-4 -10 -10 -10 -5 0 -10 5 -10 10 0 6 5 10 10 10 6 0 10 -4 10 -10z m-1560
-10 c0 -5 -4 -10 -10 -10 -5 0 -10 5 -10 10 0 6 5 10 10 10 6 0 10 -4 10 -10z
m4290 -10 c0 -5 -4 -10 -10 -10 -5 0 -10 5 -10 10 0 6 5 10 10 10 6 0 10 -4
10 -10z m290 6 c0 -3 -4 -8 -10 -11 -5 -3 -10 -1 -10 4 0 6 5 11 10 11 6 0 10
-2 10 -4z m-4680 -26 c0 -5 -4 -10 -10 -10 -5 0 -10 5 -10 10 0 6 5 10 10 10
6 0 10 -4 10 -10z m1770 -35 c0 -8 -4 -15 -10 -15 -5 0 -10 7 -10 15 0 8 5 15
10 15 6 0 10 -7 10 -15z m344 -6 c-3 -5 -10 -7 -15 -3 -5 3 -7 10 -3 15 3 5
10 7 15 3 5 -3 7 -10 3 -15z m-1120 -10 c-3 -5 -10 -7 -15 -3 -5 3 -7 10 -3
15 3 5 10 7 15 3 5 -3 7 -10 3 -15z m-588 -16 c-10 -10 -19 5 -10 18 6 11 8
11 12 0 2 -7 1 -15 -2 -18z m804 17 c0 -5 -4 -10 -10 -10 -5 0 -10 5 -10 10 0
6 5 10 10 10 6 0 10 -4 10 -10z m2200 -9 c0 -6 -4 -13 -10 -16 -5 -3 -10 1
-10 9 0 9 5 16 10 16 6 0 10 -4 10 -9z m-3624 -32 c10 -17 -13 -36 -27 -22
-12 12 -4 33 11 33 5 0 12 -5 16 -11z m2580 -36 c-10 -10 -19 5 -10 18 6 11 8
11 12 0 2 -7 1 -15 -2 -18z m-1366 -3 c0 -5 -4 -10 -10 -10 -5 0 -10 5 -10 10
0 6 5 10 10 10 6 0 10 -4 10 -10z m4220 -10 c0 -5 -5 -10 -11 -10 -5 0 -7 5
-4 10 3 6 8 10 11 10 2 0 4 -4 4 -10z m-50 -20 c0 -11 -4 -20 -9 -20 -11 0
-22 26 -14 34 12 12 23 5 23 -14z m-870 -24 c-14 -14 -24 0 -16 21 6 15 8 15
16 3 6 -9 5 -19 0 -24z m-3463 -62 c-13 -26 -14 -25 -16 22 -1 47 -1 48 14 27
14 -20 14 -26 2 -49z m513 56 c0 -5 -5 -10 -11 -10 -5 0 -7 5 -4 10 3 6 8 10
11 10 2 0 4 -4 4 -10z m2905 -30 c3 -5 1 -10 -4 -10 -6 0 -11 5 -11 10 0 6 2
10 4 10 3 0 8 -4 11 -10z m955 -4 c0 -8 -4 -18 -10 -21 -5 -3 -10 3 -10 14 0
12 5 21 10 21 6 0 10 -6 10 -14z m-150 -26 c0 -5 -4 -10 -10 -10 -5 0 -10 5
-10 10 0 6 5 10 10 10 6 0 10 -4 10 -10z m-4513 -22 c-3 -8 -6 -5 -6 6 -1 11
2 17 5 13 3 -3 4 -12 1 -19z m1078 12 c-3 -5 -10 -10 -16 -10 -5 0 -9 5 -9 10
0 6 7 10 16 10 8 0 12 -4 9 -10z m-1315 -10 c0 -5 -4 -10 -10 -10 -5 0 -10 5
-10 10 0 6 5 10 10 10 6 0 10 -4 10 -10z m3060 0 c0 -5 -4 -10 -10 -10 -5 0
-10 5 -10 10 0 6 5 10 10 10 6 0 10 -4 10 -10z m-400 -40 c0 -5 -4 -10 -10
-10 -5 0 -10 5 -10 10 0 6 5 10 10 10 6 0 10 -4 10 -10z m-2200 -10 c0 -5 -4
-10 -10 -10 -5 0 -10 5 -10 10 0 6 5 10 10 10 6 0 10 -4 10 -10z m560 0 c0 -5
-4 -10 -10 -10 -5 0 -10 5 -10 10 0 6 5 10 10 10 6 0 10 -4 10 -10z m3827 -12
c-3 -8 -6 -5 -6 6 -1 11 2 17 5 13 3 -3 4 -12 1 -19z m-32 -17 c3 -5 1 -12 -5
-16 -5 -3 -10 1 -10 9 0 18 6 21 15 7z m-5415 -11 c0 -5 -4 -10 -10 -10 -5 0
-10 5 -10 10 0 6 5 10 10 10 6 0 10 -4 10 -10z m5160 -4 c0 -3 -4 -8 -10 -11
-5 -3 -10 -1 -10 4 0 6 5 11 10 11 6 0 10 -2 10 -4z m-4894 -33 c-10 -10 -19
5 -10 18 6 11 8 11 12 0 2 -7 1 -15 -2 -18z m3281 -5 c-3 -8 -6 -5 -6 6 -1 11
2 17 5 13 3 -3 4 -12 1 -19z m-2157 -8 c0 -5 -5 -10 -11 -10 -5 0 -7 5 -4 10
3 6 8 10 11 10 2 0 4 -4 4 -10z m-605 -20 c0 -7 -6 -15 -12 -17 -8 -3 -13 4
-13 17 0 13 5 20 13 18 6 -3 12 -11 12 -18z m3206 -7 c-12 -20 -14 -14 -5 12
4 9 9 14 11 11 3 -2 0 -13 -6 -23z m-3821 7 c0 -5 -4 -10 -10 -10 -5 0 -10 5
-10 10 0 6 5 10 10 10 6 0 10 -4 10 -10z m1230 -16 c0 -8 -4 -12 -10 -9 -5 3
-10 10 -10 16 0 5 5 9 10 9 6 0 10 -7 10 -16z m2121 -37 c-13 -13 -26 -3 -16
12 3 6 11 8 17 5 6 -4 6 -10 -1 -17z m-2411 -21 c0 -3 -4 -8 -10 -11 -5 -3
-10 -1 -10 4 0 6 5 11 10 11 6 0 10 -2 10 -4z m1052 -11 c0 -5 -5 -11 -11 -13
-6 -2 -11 4 -11 13 0 9 5 15 11 13 6 -2 11 -8 11 -13z m-1392 -5 c0 -5 -4 -10
-10 -10 -5 0 -10 5 -10 10 0 6 5 10 10 10 6 0 10 -4 10 -10z m4167 -42 c-3 -8
-6 -5 -6 6 -1 11 2 17 5 13 3 -3 4 -12 1 -19z m278 12 c3 -5 1 -10 -4 -10 -6
0 -11 5 -11 10 0 6 2 10 4 10 3 0 8 -4 11 -10z m-4622 -25 c-3 -9 -8 -14 -10
-11 -3 3 -2 9 2 15 9 16 15 13 8 -4z m1887 5 c0 -5 -4 -10 -10 -10 -5 0 -10 5
-10 10 0 6 5 10 10 10 6 0 10 -4 10 -10z m730 0 c0 -5 -4 -10 -10 -10 -5 0
-10 5 -10 10 0 6 5 10 10 10 6 0 10 -4 10 -10z m1697 -59 c10 -6 13 -11 6 -11
-7 0 -19 -12 -27 -27 -8 -16 -15 -23 -16 -17 0 5 -9 20 -20 32 -12 12 -17 22
-12 22 5 0 15 12 22 26 13 24 14 24 21 6 4 -11 16 -25 26 -31z m-4827 -1 c0
-5 -4 -10 -10 -10 -5 0 -10 5 -10 10 0 6 5 10 10 10 6 0 10 -4 10 -10z m1280
0 c0 -5 -5 -10 -11 -10 -5 0 -7 5 -4 10 3 6 8 10 11 10 2 0 4 -4 4 -10z m-470
-25 c0 -8 -4 -15 -10 -15 -5 0 -10 7 -10 15 0 8 5 15 10 15 6 0 10 -7 10 -15z
m-185 -24 c3 -5 1 -12 -5 -16 -5 -3 -10 1 -10 9 0 18 6 21 15 7z m975 -21 c0
-5 -4 -10 -10 -10 -5 0 -10 5 -10 10 0 6 5 10 10 10 6 0 10 -4 10 -10z m1580
0 c0 -5 -5 -10 -11 -10 -5 0 -7 5 -4 10 3 6 8 10 11 10 2 0 4 -4 4 -10z m-350
-10 c0 -5 -4 -10 -10 -10 -5 0 -10 5 -10 10 0 6 5 10 10 10 6 0 10 -4 10 -10z
m550 -54 c-14 -14 -24 0 -16 21 6 15 8 15 16 3 6 -9 5 -19 0 -24z m-828 -8
c-9 -9 -12 -7 -12 12 0 19 3 21 12 12 9 -9 9 -15 0 -24z m-518 -23 c6 -17 -2
-45 -14 -45 -4 0 -10 7 -14 15 -6 17 2 45 14 45 4 0 10 -7 14 -15z m1746 -10
c0 -8 -4 -15 -10 -15 -5 0 -10 7 -10 15 0 8 5 15 10 15 6 0 10 -7 10 -15z
m-2318 -27 c-9 -9 -12 -7 -12 12 0 19 3 21 12 12 9 -9 9 -15 0 -24z m-1461 -2
c5 3 9 1 9 -5 0 -6 7 -8 15 -5 8 4 15 1 15 -6 0 -6 -4 -8 -10 -5 -5 3 -10 0
-10 -7 0 -10 -2 -10 -9 1 -5 7 -14 11 -20 7 -6 -4 -20 -2 -31 4 -13 7 -20 7
-20 1 0 -6 -7 -8 -15 -5 -8 4 -15 11 -15 16 0 6 7 8 15 4 8 -3 15 -1 15 4 0 6
10 6 26 0 14 -6 30 -8 35 -4z m1096 -8 c-3 -8 -6 -5 -6 6 -1 11 2 17 5 13 3
-3 4 -12 1 -19z m-350 6 c-3 -3 -12 -4 -19 -1 -8 3 -5 6 6 6 11 1 17 -2 13 -5z
m-652 -13 c-3 -5 5 -12 17 -14 13 -2 6 -4 -14 -3 -40 1 -50 11 -20 19 9 3 18
5 20 6 2 0 1 -3 -3 -8z m4435 -11 c0 -5 -5 -10 -11 -10 -5 0 -7 5 -4 10 3 6 8
10 11 10 2 0 4 -4 4 -10z m375 0 c4 -6 11 -8 16 -5 5 4 9 2 9 -2 0 -5 -10 -14
-21 -21 -25 -16 -45 -3 -36 22 7 18 23 21 32 6z m-4725 -4 c0 -3 -4 -8 -10
-11 -5 -3 -10 -1 -10 4 0 6 5 11 10 11 6 0 10 -2 10 -4z m45 -6 c3 -6 17 -7
29 -4 16 4 25 0 30 -12 5 -12 3 -14 -6 -8 -7 5 -26 9 -43 8 -35 -2 -48 4 -40
17 8 12 22 12 30 -1z m549 -9 c3 -4 -4 -8 -15 -8 -10 -1 -19 4 -19 10 0 7 -4
6 -10 -3 -5 -8 -12 -11 -17 -7 -4 5 -1 12 6 16 14 9 48 4 55 -8z m36 4 c-7 -9
-15 -13 -19 -10 -3 3 1 10 9 15 21 14 24 12 10 -5z m-449 -12 c2 1 3 0 1 -3
-2 -3 -17 -5 -33 -6 -23 -1 -27 2 -18 12 8 9 17 11 29 4 9 -5 19 -8 21 -7z
m339 13 c0 -3 -4 -8 -10 -11 -5 -3 -10 -1 -10 4 0 6 5 11 10 11 6 0 10 -2 10
-4z m139 -17 c-22 -14 -33 -10 -19 6 7 8 17 12 22 9 6 -4 5 -10 -3 -15z m-409
-6 c21 6 28 -8 8 -16 -17 -5 -58 13 -58 26 0 5 7 4 15 -3 8 -7 24 -10 35 -7z
m437 -5 c-3 -8 -6 -5 -6 6 -1 11 2 17 5 13 3 -3 4 -12 1 -19z m-307 -14 c0
-13 -64 -8 -89 6 -11 7 0 9 36 7 31 -1 53 -7 53 -13z m-420 -9 c0 -2 -9 -3
-19 -2 -11 0 -18 5 -15 9 4 6 34 0 34 -7z m486 2 c4 -4 0 -7 -9 -7 -9 0 -20 0
-24 -1 -4 0 -9 4 -11 9 -3 10 34 9 44 -1z m324 3 c0 -5 -5 -10 -11 -10 -5 0
-7 5 -4 10 3 6 8 10 11 10 2 0 4 -4 4 -10z m3300 0 c0 -5 -4 -10 -10 -10 -5 0
-10 5 -10 10 0 6 5 10 10 10 6 0 10 -4 10 -10z m112 -22 c-9 -9 -12 -7 -12 12
0 19 3 21 12 12 9 -9 9 -15 0 -24z m-4177 12 c3 -6 -1 -7 -9 -4 -18 7 -21 14
-7 14 6 0 13 -4 16 -10z m86 -13 c-1 -12 -15 -9 -19 4 -3 6 1 10 8 8 6 -3 11
-8 11 -12z m4870 -10 c-1 -12 -15 -9 -19 4 -3 6 1 10 8 8 6 -3 11 -8 11 -12z
m-4153 -13 c6 3 13 2 17 -3 3 -6 12 -8 20 -4 9 3 15 -1 15 -11 0 -12 -5 -14
-25 -6 -14 5 -41 8 -60 5 -21 -2 -38 1 -45 10 -10 12 -7 14 19 10 19 -2 31 1
31 8 0 8 3 7 9 -2 5 -7 13 -11 19 -7z m-1056 -6 c-9 -9 -15 -9 -24 0 -9 9 -7
12 12 12 19 0 21 -3 12 -12z m58 2 c0 -5 -4 -10 -10 -10 -5 0 -10 5 -10 10 0
6 5 10 10 10 6 0 10 -4 10 -10z m530 -11 c9 -5 0 -6 -24 -4 -21 3 -45 9 -55
15 -20 12 57 1 79 -11z m-445 1 c15 -7 7 -9 -27 -7 -27 1 -48 5 -48 10 0 10
50 8 75 -3z m995 -2 c0 -10 2 -10 8 -1 5 8 12 8 27 -3 18 -13 17 -14 -15 -11
-30 2 -58 27 -31 27 6 0 11 -6 11 -12z m-904 -10 c3 -4 18 -4 32 -2 19 4 24 2
16 -6 -16 -17 -54 -21 -54 -6 0 9 -9 12 -26 8 -16 -3 -25 -1 -21 5 7 10 42 11
53 1z m404 2 c8 -5 11 -10 5 -10 -5 0 -17 5 -25 10 -8 5 -10 10 -5 10 6 0 17
-5 25 -10z m4790 -6 c0 -8 -5 -12 -10 -9 -6 4 -8 11 -5 16 9 14 15 11 15 -7z
m-4150 -8 c0 -6 5 -5 11 1 8 8 20 8 35 3 13 -5 24 -7 24 -4 0 4 7 1 15 -6 10
-8 15 -9 15 -2 0 6 7 9 15 6 35 -14 10 -22 -52 -17 -62 4 -143 20 -143 27 0 1
18 2 40 2 22 0 40 -5 40 -10z m2920 10 c0 -3 -4 -8 -10 -11 -5 -3 -10 -1 -10
4 0 6 5 11 10 11 6 0 10 -2 10 -4z m-3870 -20 c0 -6 5 -4 10 4 8 13 10 12 10
-4 0 -12 -5 -16 -16 -12 -9 3 -22 6 -30 6 -9 0 -13 4 -10 8 7 12 36 11 36 -2z
m93 -10 c4 -10 1 -13 -9 -9 -15 6 -19 23 -5 23 5 0 11 -7 14 -14z m50 1 c4 3
7 1 7 -6 0 -17 -32 -10 -38 9 -4 12 -3 13 10 3 8 -7 18 -10 21 -6z m977 3 c7
11 10 11 10 2 0 -8 5 -10 13 -6 9 5 9 4 1 -5 -15 -16 -46 -11 -51 9 -4 13 -3
13 6 0 10 -13 12 -13 21 0z m-480 -6 c0 -8 -19 -13 -24 -6 -3 5 1 9 9 9 8 0
15 -2 15 -3z m550 -1 c0 -5 26 -8 58 -8 41 1 59 -3 59 -12 0 -8 -13 -13 -31
-13 -24 0 -27 3 -16 10 9 6 10 10 3 10 -6 0 -14 -4 -18 -9 -3 -6 -18 -6 -36
-1 -16 5 -38 6 -47 3 -15 -6 -15 -5 -3 10 14 18 31 23 31 10z m540 -3 c0 -5
-2 -10 -4 -10 -3 0 -8 5 -11 10 -3 6 -1 10 4 10 6 0 11 -4 11 -10z m-1460 -10
c8 -5 11 -12 7 -17 -5 -4 -12 -1 -17 7 -7 11 -11 11 -24 1 -12 -10 -16 -10
-16 -2 0 7 -4 9 -10 6 -5 -3 -10 -1 -10 4 0 13 50 14 70 1z m1118 -22 c4 2 7
-1 8 -8 2 -7 1 -7 -3 0 -3 8 -9 7 -19 -1 -11 -9 -14 -8 -14 7 0 14 -3 15 -12
6 -15 -15 -28 -16 -28 -2 0 6 7 10 16 10 9 0 12 5 8 13 -4 6 3 3 15 -8 13 -11
26 -19 29 -17z m-1048 -3 c0 -2 -8 -3 -18 -2 -10 0 -19 7 -19 13 0 9 5 10 19
3 10 -5 18 -12 18 -14z m414 17 c3 -5 -8 -6 -25 -4 -16 2 -29 6 -29 8 0 8 49
4 54 -4z m97 -9 c11 -15 11 -16 0 -6 -9 8 -21 9 -37 3 -30 -12 -32 -2 -1 10
12 5 23 9 23 9 1 1 8 -7 15 -16z m1445 -10 c-10 -10 -19 5 -10 18 6 11 8 11
12 0 2 -7 1 -15 -2 -18z m-1336 2 c4 3 13 -1 19 -9 9 -11 6 -12 -14 -8 -15 2
-25 11 -24 21 0 10 2 11 6 3 2 -6 8 -10 13 -7z m517 -1 c48 -4 63 -10 63 -26
0 -7 -4 -7 -12 -1 -7 5 -25 8 -40 7 -16 -2 -28 1 -28 6 0 6 -10 6 -25 0 -22
-8 -25 -7 -25 11 0 12 4 17 11 13 6 -3 31 -8 56 -10z m-432 -23 c-6 -5 -25 10
-25 20 0 5 6 4 14 -3 8 -7 12 -15 11 -17z m1085 13 c0 -2 -9 -4 -21 -4 -11 0
-18 4 -14 10 5 8 35 3 35 -6z m35 6 c3 -5 1 -10 -4 -10 -6 0 -11 5 -11 10 0 6
2 10 4 10 3 0 8 -4 11 -10z m281 -17 c-10 -10 -19 5 -10 18 6 11 8 11 12 0 2
-7 1 -15 -2 -18z m444 12 c0 -8 -4 -15 -10 -15 -5 0 -10 7 -10 15 0 8 5 15 10
15 6 0 10 -7 10 -15z m-1259 -5 c6 0 8 -4 5 -8 -3 -5 22 -7 54 -5 44 2 60 0
60 -9 0 -9 4 -8 11 2 9 13 10 13 6 0 -4 -17 -39 -20 -76 -7 -15 5 -27 4 -31
-2 -4 -7 -15 -5 -32 3 -20 11 -28 11 -32 3 -2 -7 -5 -1 -5 12 -1 17 3 22 15
17 9 -3 20 -6 25 -6z m419 1 c0 -9 -182 -101 -200 -101 -6 0 -10 -4 -10 -10 0
-5 -6 -10 -14 -10 -7 0 -29 -11 -49 -24 -19 -13 -38 -22 -41 -18 -3 3 -6 0 -6
-6 0 -7 -6 -11 -12 -9 -7 1 -12 -3 -11 -9 1 -6 -12 -10 -31 -9 -24 1 -33 -2
-29 -12 3 -8 -2 -13 -13 -14 -35 -1 50 -27 92 -28 22 -1 44 -4 48 -8 3 -4 45
-8 92 -10 62 -3 92 0 107 10 12 8 30 13 39 11 10 -1 16 3 15 9 -1 7 6 11 15
11 10 -1 15 2 12 7 -3 5 5 14 18 19 13 6 38 19 56 30 17 11 32 16 32 12 0 -4
4 -2 8 4 15 23 102 58 88 35 -3 -5 1 -14 10 -21 12 -11 17 -11 27 -1 9 10 8
12 -7 9 -30 -5 -28 29 4 52 15 11 31 16 35 12 4 -4 1 3 -6 16 -8 12 -24 22
-36 22 -12 0 -24 4 -27 9 -3 4 7 7 22 5 15 -2 57 -6 94 -8 37 -2 71 -7 76 -10
5 -3 43 -6 85 -8 42 -2 77 -6 77 -9 0 -4 10 -7 23 -7 20 0 78 -7 134 -15 13
-2 25 -6 29 -9 3 -4 12 -4 19 -2 7 3 16 1 19 -5 3 -5 -7 -12 -24 -16 -42 -9
-90 -34 -90 -47 0 -5 -7 -7 -16 -4 -8 3 -24 1 -35 -4 -12 -7 -19 -7 -19 -1 0
6 -7 8 -15 5 -8 -4 -15 -2 -15 4 0 6 6 12 13 15 6 2 8 8 4 13 -4 5 -12 2 -16
-5 -5 -7 -14 -11 -20 -7 -7 5 -9 1 -5 -9 4 -8 17 -18 30 -21 13 -3 24 -10 24
-15 0 -12 -17 -11 -41 2 -18 9 -20 7 -17 -17 2 -16 -3 -29 -11 -32 -10 -3 -12
0 -8 11 3 9 2 19 -2 22 -5 3 -12 -2 -15 -10 -3 -8 -9 -15 -13 -14 -15 2 -53
-13 -53 -22 0 -12 17 -11 25 1 8 13 35 13 35 1 0 -5 -13 -12 -30 -16 -16 -4
-30 -13 -30 -21 0 -8 -5 -14 -11 -14 -5 0 -7 4 -4 10 4 6 -5 9 -21 8 -14 -2
-28 -8 -31 -14 -2 -7 -12 -10 -23 -7 -10 3 -21 0 -24 -6 -4 -6 -12 -11 -18
-11 -6 0 -5 7 3 17 13 15 12 15 -8 4 -24 -12 -21 -46 3 -37 8 3 14 1 14 -4 0
-6 -7 -10 -16 -10 -11 0 -14 -6 -9 -20 5 -14 2 -20 -10 -20 -9 0 -13 5 -10 10
4 6 -6 10 -22 11 -46 1 -94 6 -99 11 -2 3 0 16 5 30 7 19 6 25 -5 25 -8 0 -14
-4 -14 -9 0 -4 -11 -8 -25 -8 -27 0 -32 17 -12 40 6 8 2 6 -10 -4 -28 -23 -19
-46 18 -46 16 0 29 -5 29 -10 0 -18 -61 -1 -80 22 -12 15 -19 18 -24 9 -4 -7
-2 -10 5 -9 6 2 14 -3 16 -10 4 -10 -2 -11 -24 -6 -38 9 -41 13 -21 28 10 7
15 15 13 18 -3 3 1 11 10 18 8 7 15 18 15 25 0 17 32 29 40 15 5 -8 9 -7 13 3
3 8 3 18 0 21 -10 9 -63 -24 -63 -39 0 -8 -5 -15 -11 -15 -5 0 -7 4 -4 10 3 6
-1 7 -10 3 -13 -5 -14 -7 -3 -14 11 -8 11 -10 0 -18 -8 -4 -14 -12 -14 -17 0
-15 -17 -41 -18 -27 0 7 -6 10 -14 7 -8 -3 -17 -1 -20 5 -4 6 -15 7 -30 1 -13
-5 -27 -5 -32 0 -5 4 -38 10 -74 13 -36 3 -85 10 -110 16 -25 6 -85 11 -133
13 -89 3 -110 11 -57 23 17 4 36 13 44 20 22 22 103 65 110 58 3 -4 6 1 6 10
0 10 5 14 15 11 8 -4 15 -2 15 4 0 6 20 18 45 28 25 9 45 21 45 26 0 5 5 6 10
3 6 -3 10 -1 10 5 0 6 4 9 9 5 5 -3 16 2 24 10 9 8 25 15 37 15 12 0 28 7 36
15 9 8 26 15 40 15 13 0 24 5 24 10 0 6 5 10 10 10 6 0 10 -4 10 -9z m1070 -1
c0 -5 -4 -10 -10 -10 -5 0 -10 5 -10 10 0 6 5 10 10 10 6 0 10 -4 10 -10z m90
-12 c0 -16 -3 -19 -11 -11 -6 6 -8 16 -5 22 11 17 16 13 16 -11z m-2115 2 c3
-5 1 -10 -4 -10 -6 0 -11 5 -11 10 0 6 2 10 4 10 3 0 8 -4 11 -10z m475 0 c0
-5 -4 -10 -10 -10 -5 0 -10 5 -10 10 0 6 5 10 10 10 6 0 10 -4 10 -10z m-850
-12 c0 -4 7 -5 15 -2 9 4 15 0 15 -7 0 -12 2 -12 9 0 6 9 11 10 15 2 7 -10 -7
-16 -29 -11 -11 2 -93 12 -112 13 -7 0 -10 3 -8 7 6 9 95 7 95 -2z m520 -3
c-7 -8 -18 -15 -24 -15 -6 0 -2 7 8 15 25 19 32 19 16 0z m-393 -11 c22 1 39
-2 37 -5 -2 -4 13 -6 34 -5 24 1 39 -2 39 -10 0 -12 -82 -12 -94 0 -4 3 -21 6
-40 6 -25 0 -33 4 -33 18 0 10 3 13 8 6 4 -5 26 -10 49 -10z m448 -2 c-3 -3
-11 0 -18 7 -9 10 -8 11 6 5 10 -3 15 -9 12 -12z m45 -6 c0 -2 -9 -6 -20 -9
-11 -3 -18 -1 -14 4 5 9 34 13 34 5z m40 -12 c0 -2 -7 -4 -15 -4 -8 0 -15 4
-15 10 0 5 7 7 15 4 8 -4 15 -8 15 -10z m690 -5 c0 -5 -12 -8 -27 -8 -17 1
-21 3 -10 6 9 2 17 9 17 14 0 6 5 7 10 4 6 -3 10 -10 10 -16z m-1070 7 c0 -2
-7 -6 -15 -10 -8 -3 -15 -1 -15 4 0 6 7 10 15 10 8 0 15 -2 15 -4z m52 -11 c3
0 10 -3 14 -7 4 -5 -9 -8 -30 -8 -31 0 -35 2 -24 14 7 8 18 11 23 8 6 -4 13
-7 17 -7z m1107 4 c29 -10 43 -29 21 -29 -5 0 -10 4 -10 8 0 5 -12 13 -27 19
-37 14 -25 16 16 2z m85 2 c3 -5 -5 -8 -19 -8 -14 0 -22 3 -19 8 3 5 11 9 19
9 8 0 16 -4 19 -9z m-1134 -17 c0 -2 -7 -4 -15 -4 -8 0 -15 4 -15 10 0 5 7 7
15 4 8 -4 15 -8 15 -10z m1014 -5 c22 3 36 0 36 -9 0 -13 -12 -13 -45 0 -15 6
-23 15 -19 21 5 8 9 8 14 -1 4 -6 10 -11 14 -11z m3056 11 c0 -5 -4 -10 -10
-10 -5 0 -10 5 -10 10 0 6 5 10 10 10 6 0 10 -4 10 -10z m-3945 -15 c22 -3 46
-6 53 -7 27 -3 10 -14 -22 -14 -19 1 -32 4 -29 9 7 12 -12 8 -25 -5 -9 -9 -12
-9 -12 1 0 7 -4 10 -9 6 -6 -3 -25 1 -43 9 l-33 15 40 -5 c22 -2 58 -7 80 -9z
m305 11 c0 -2 -7 -7 -16 -10 -8 -3 -12 -2 -9 4 6 10 25 14 25 6z m-200 -30 c0
-11 -19 -15 -25 -6 -3 5 1 10 9 10 9 0 16 -2 16 -4z m59 -10 c-11 -9 -63 -17
-54 -8 6 6 19 12 30 14 20 4 32 1 24 -6z m2741 4 c0 -5 -4 -10 -10 -10 -5 0
-10 5 -10 10 0 6 5 10 10 10 6 0 10 -4 10 -10z m-2710 -4 c0 -2 -7 -9 -15 -16
-13 -11 -14 -10 -9 4 5 14 24 23 24 12z m530 -10 c0 -3 -4 -8 -10 -11 -5 -3
-10 -1 -10 4 0 6 5 11 10 11 6 0 10 -2 10 -4z m45 -6 c3 -6 -1 -7 -9 -4 -18 7
-21 14 -7 14 6 0 13 -4 16 -10z m781 -35 c-11 -8 -27 -15 -35 -15 -10 0 -7 6
9 14 33 19 50 19 26 1z m1032 -39 c-10 -19 -11 -19 -24 -2 -10 14 -10 23 -1
36 10 17 12 17 23 2 9 -12 9 -22 2 -36z m-2007 17 c13 -16 12 -17 -3 -4 -10 7
-18 15 -18 17 0 8 8 3 21 -13z m79 7 c0 -5 -5 -10 -11 -10 -5 0 -7 5 -4 10 3
6 8 10 11 10 2 0 4 -4 4 -10z m1093 -13 c9 -1 17 -5 17 -10 0 -5 -10 -6 -22
-3 -13 4 -34 9 -48 10 -14 2 -31 4 -37 4 -7 1 -13 6 -13 11 0 4 19 4 43 -1 23
-5 50 -10 60 -11z m-1973 -16 c0 -14 4 -21 8 -16 8 12 22 12 75 1 41 -8 50
-26 13 -26 -14 0 -32 -10 -40 -22 -9 -12 -16 -17 -16 -10 0 17 -22 11 -38 -11
-17 -23 -8 -36 23 -32 27 3 34 -9 10 -19 -8 -3 -15 0 -15 7 0 7 -5 4 -11 -6
-5 -9 -7 -22 -3 -29 4 -6 3 -8 -4 -4 -5 3 -12 3 -15 -1 -2 -5 -3 -3 -1 3 1 6
-4 11 -12 11 -8 0 -13 -6 -10 -12 6 -16 -32 -37 -55 -30 -10 4 -19 9 -19 13 0
4 -21 6 -47 5 -27 0 -51 4 -55 10 -6 9 -8 9 -8 0 0 -7 -6 -11 -12 -8 -17 5
-132 16 -190 18 -43 2 -45 3 -30 18 9 9 22 14 28 12 13 -5 27 24 19 37 -3 5
-15 6 -28 4 -12 -3 -29 -6 -37 -7 -15 -2 -50 -34 -50 -46 0 -3 -26 -7 -57 -9
-49 -2 -54 -1 -43 13 15 18 24 20 14 3 -5 -8 -1 -7 10 2 10 8 25 15 34 17 9 1
21 8 27 15 11 16 98 58 117 58 7 0 27 9 45 20 18 10 41 17 52 15 11 -2 23 0
26 5 3 4 21 4 40 0 24 -5 33 -5 28 3 -4 7 0 8 12 3 11 -4 22 -2 27 6 6 10 8
10 8 -1 0 -11 3 -11 15 -1 12 10 15 10 15 0 0 -9 4 -9 17 1 15 12 16 12 10 -6
-6 -18 -5 -18 9 2 13 18 25 22 65 21 46 -1 49 -3 49 -27z m260 15 c19 -2 38
-5 43 -5 20 -3 4 -21 -19 -21 -14 0 -34 -5 -45 -10 -15 -9 -21 -7 -25 5 -4 9
-13 14 -20 11 -8 -3 -14 -2 -14 3 0 4 -27 7 -60 7 -33 -1 -62 4 -63 9 -2 6
-10 5 -19 -2 -15 -13 -28 -8 -28 10 0 9 149 4 250 -7z m677 -6 c4 -12 3 -13
-5 -1 -6 8 -17 11 -26 8 -9 -4 -16 -2 -16 4 0 16 43 6 47 -11z m43 10 c0 -5
-5 -10 -11 -10 -5 0 -7 5 -4 10 3 6 8 10 11 10 2 0 4 -4 4 -10z m-2256 -9 c-8
-8 -43 -8 -38 0 2 4 13 7 24 6 10 -1 17 -3 14 -6z m2886 -1 c0 -5 -2 -10 -4
-10 -3 0 -8 5 -11 10 -3 6 -1 10 4 10 6 0 11 -4 11 -10z m106 -2 c4 -6 3 -8
-4 -4 -5 3 -13 0 -15 -6 -3 -8 -6 -6 -6 5 -1 19 14 23 25 5z m-2876 -13 c0 -2
-9 -3 -19 -2 -11 0 -18 5 -15 9 4 6 34 0 34 -7z m3335 -3 c-3 -3 -11 0 -18 7
-9 10 -8 11 6 5 10 -3 15 -9 12 -12z m-510 -11 c-3 -6 -11 -11 -17 -11 -6 0
-6 6 2 15 14 17 26 13 15 -4z m552 3 c-3 -3 -12 -4 -19 -1 -8 3 -5 6 6 6 11 1
17 -2 13 -5z m53 -4 c0 -5 -4 -10 -10 -10 -5 0 -10 5 -10 10 0 6 5 10 10 10 6
0 10 -4 10 -10z m-3215 -10 c3 -5 -1 -10 -10 -10 -9 0 -13 5 -10 10 3 6 8 10
10 10 2 0 7 -4 10 -10z m1095 6 c0 -3 -4 -8 -10 -11 -5 -3 -10 -1 -10 4 0 6 5
11 10 11 6 0 10 -2 10 -4z m60 -7 c0 -5 -4 -9 -9 -9 -5 0 -16 -3 -25 -6 -10
-4 -16 -1 -16 9 0 9 10 15 25 15 14 0 25 -4 25 -9z m2208 -9 c24 -7 21 -8 -18
-9 -58 -1 -120 9 -120 20 0 9 96 1 138 -11z m-3313 0 c-3 -5 -12 -7 -20 -3
-21 7 -19 13 6 13 11 0 18 -4 14 -10z m2509 -5 c-4 -8 -11 -15 -16 -15 -6 0
-5 6 2 15 7 8 14 15 16 15 2 0 1 -7 -2 -15z m852 6 c-3 -5 2 -12 11 -16 10 -3
19 -2 21 3 1 4 24 6 50 4 26 -2 59 -5 75 -6 39 -2 34 -23 -7 -28 -19 -2 -33
-1 -30 3 8 14 -15 20 -35 9 -11 -6 -22 -6 -25 -1 -3 5 -23 8 -44 7 -33 -2 -38
1 -34 16 2 10 9 18 14 18 5 0 7 -4 4 -9z m479 -1 c3 -6 -1 -7 -9 -4 -18 7 -21
14 -7 14 6 0 13 -4 16 -10z m47 -12 c-7 -7 -12 -8 -12 -2 0 14 12 26 19 19 2
-3 -1 -11 -7 -17z m-3832 -9 c0 -6 -4 -7 -10 -4 -5 3 -10 11 -10 16 0 6 5 7
10 4 6 -3 10 -11 10 -16z m44 12 c3 -5 -1 -11 -9 -15 -8 -3 -17 0 -21 6 -4 7
-3 8 4 4 7 -4 12 -2 12 3 0 13 7 14 14 2z m40 0 c3 -5 -1 -11 -9 -14 -9 -4
-12 -1 -8 9 6 16 10 17 17 5z m921 -12 c4 -5 -6 -9 -20 -9 -15 0 -24 -4 -20
-10 8 -13 -18 -8 -27 5 -4 5 0 12 8 15 27 10 53 9 59 -1z m1910 1 c8 -13 -5
-13 -25 0 -13 8 -13 10 2 10 9 0 20 -4 23 -10z m-2698 -15 c0 -8 -4 -12 -9 -9
-5 3 -6 10 -3 15 9 13 12 11 12 -6z m2193 5 c0 -5 -7 -10 -16 -10 -8 0 -12 -4
-9 -10 3 -5 1 -10 -5 -10 -6 0 -17 -6 -24 -12 -8 -7 -24 -20 -36 -28 -13 -8
-31 -23 -41 -32 -17 -16 -42 -19 -55 -5 -4 4 3 7 16 7 13 0 20 3 17 7 -10 9
31 35 43 28 6 -3 10 1 10 9 0 9 7 16 16 16 8 0 12 5 9 10 -3 6 2 10 12 10 10
0 27 7 37 15 23 18 26 18 26 5z m1120 -1 c0 -6 7 -8 17 -5 10 4 14 3 9 -1 -13
-13 -53 -10 -53 4 0 7 6 13 14 13 7 0 13 -5 13 -11z m-3710 -5 c0 -8 -19 -13
-24 -6 -3 5 1 9 9 9 8 0 15 -2 15 -3z m1109 -22 c0 -14 -2 -14 -8 2 -6 17 -8
17 -14 4 -6 -18 -31 -18 -48 -1 -7 7 -3 9 14 6 14 -3 28 0 32 6 9 15 25 4 24
-17z m1566 18 c13 -6 15 -9 5 -9 -8 0 -22 4 -30 9 -18 12 -2 12 25 0z m95 -10
c0 -5 -4 -10 -10 -10 -5 0 -10 5 -10 10 0 6 5 10 10 10 6 0 10 -4 10 -10z m74
-19 c-4 -3 -9 0 -11 7 -4 10 -8 10 -19 1 -9 -7 -14 -8 -14 -1 0 6 6 12 13 15
14 5 40 -13 31 -22z m1004 12 c-13 -16 -38 -17 -38 -2 0 6 -9 8 -20 4 -11 -4
-20 -2 -20 4 0 6 19 9 44 8 34 -2 42 -5 34 -14z m-439 -9 c10 -9 -35 -3 -49 6
-11 8 -7 9 15 4 17 -4 32 -8 34 -10z m-962 0 c-3 -3 -12 -4 -19 -1 -8 3 -5 6
6 6 11 1 17 -2 13 -5z m1073 -14 c0 -5 -8 -10 -17 -10 -15 0 -16 2 -3 10 19
12 20 12 20 0z m39 -13 c0 -9 -2 -8 -6 1 -2 6 -10 9 -15 6 -7 -4 -8 -2 -4 5 9
13 26 5 25 -12z m-2200 9 c-2 -2 -15 -9 -29 -15 -24 -11 -24 -11 -6 3 16 13
49 24 35 12z m2791 -6 c0 -5 -10 -10 -22 -9 -22 0 -22 1 -3 9 11 5 21 9 23 9
1 1 2 -3 2 -9z m25 0 c3 -5 1 -10 -4 -10 -6 0 -11 5 -11 10 0 6 2 10 4 10 3 0
8 -4 11 -10z m-1780 -10 c-3 -5 -12 -10 -18 -10 -7 0 -6 4 3 10 19 12 23 12
15 0z m1909 -11 c8 -8 5 -9 -13 -4 -15 5 -21 3 -17 -3 7 -11 -12 -11 -31 1 -7
5 -18 5 -25 1 -7 -4 -8 -3 -4 4 10 16 -7 15 -23 0 -10 -11 -11 -10 -6 4 5 13
17 16 57 13 28 -2 56 -9 62 -16z m-1089 0 c3 -3 -8 -6 -24 -5 -16 1 -32 4 -36
7 -3 3 8 6 24 5 16 -1 32 -4 36 -7z m515 7 c0 -3 -4 -8 -10 -11 -5 -3 -10 -1
-10 4 0 6 5 11 10 11 6 0 10 -2 10 -4z m49 -19 c0 -9 -2 -9 -5 0 -3 7 -13 9
-22 6 -14 -4 -14 -3 -2 5 16 12 30 7 29 -11z m-3407 -15 c-10 -9 -12 -13 -5
-8 20 13 28 -1 12 -20 -13 -16 -12 -16 7 -4 14 9 20 20 16 34 -4 21 -4 21 12
1 10 -11 15 -14 11 -8 -4 9 3 12 23 9 16 -2 34 -6 40 -10 6 -3 13 -2 16 2 3 5
17 7 31 4 17 -3 28 -14 35 -36 l10 -31 -5 33 -5 33 63 -7 c34 -4 63 -9 64 -13
2 -3 26 -4 53 -3 29 2 57 -1 65 -8 9 -7 33 -10 67 -6 51 5 52 5 26 -10 -16 -8
-28 -22 -29 -32 0 -14 -2 -13 -9 4 -10 26 -75 32 -84 8 -9 -23 3 -36 25 -29
12 4 19 2 19 -6 0 -9 -20 -10 -82 -4 -46 4 -105 9 -132 11 -26 2 -52 7 -57 10
-5 3 -9 -1 -9 -8 0 -11 -2 -10 -9 0 -5 9 -20 12 -38 9 -17 -3 -49 -1 -72 3
-27 5 -41 4 -41 -3 0 -8 -4 -7 -11 0 -6 6 -18 9 -25 6 -8 -3 -27 0 -43 5 -21
7 -32 7 -40 -1 -9 -9 -10 -7 -5 7 5 14 3 17 -7 14 -8 -3 -13 -10 -12 -15 1 -5
-8 -8 -20 -7 -12 1 -29 3 -37 3 -9 1 -2 9 15 19 17 10 40 18 53 16 13 -1 22 3
22 11 0 16 33 30 38 16 2 -6 8 -11 13 -11 6 0 7 5 4 11 -4 6 2 13 14 16 12 3
21 10 21 15 0 5 5 6 10 3 6 -4 3 -13 -8 -23z m907 25 c-28 -21 -59 -36 -59
-29 0 9 37 30 54 31 5 1 7 0 5 -2z m695 -12 c3 -8 1 -15 -4 -15 -6 0 -10 7
-10 15 0 8 2 15 4 15 2 0 6 -7 10 -15z m1310 7 c3 -5 -1 -9 -9 -9 -8 0 -15 4
-15 9 0 4 4 8 9 8 6 0 12 -4 15 -8z m1189 -11 c13 -13 30 -15 23 -2 -3 5 10 3
30 -4 20 -7 53 -11 75 -10 21 1 39 -1 39 -5 0 -4 17 -6 37 -4 23 2 32 -1 24
-6 -12 -7 -12 -9 0 -13 8 -2 5 -2 -6 0 -11 3 -42 7 -70 9 -51 5 -167 15 -197
17 -9 1 -14 5 -11 10 3 5 -4 6 -15 3 -12 -4 -30 -2 -42 4 -14 8 -20 8 -20 0 0
-6 -5 -8 -11 -4 -8 4 -7 9 2 15 18 11 129 3 142 -10z m-955 -12 c12 0 22 -4
22 -9 0 -9 -14 -14 -33 -11 -4 1 -27 4 -50 7 -23 2 -46 10 -52 16 -7 8 4 9 40
3 28 -4 60 -7 73 -6z m82 -15 c3 0 12 -3 20 -7 8 -3 22 -8 30 -10 10 -4 7 -6
-7 -6 -12 -1 -24 3 -27 7 -3 5 -19 8 -36 7 -16 -1 -30 2 -30 6 0 10 23 17 35
10 6 -3 12 -6 15 -7z m-2436 -9 c-4 -8 -11 -15 -16 -15 -6 0 -5 6 2 15 7 8 14
15 16 15 2 0 1 -7 -2 -15z m796 5 c0 -5 -5 -10 -11 -10 -5 0 -7 5 -4 10 3 6 8
10 11 10 2 0 4 -4 4 -10z m500 -22 c0 -5 6 -8 13 -8 8 0 22 -9 32 -21 19 -20
19 -20 -10 -9 -15 6 -36 20 -45 30 -10 11 -23 20 -29 20 -7 0 -9 4 -6 10 6 10
45 -9 45 -22z m-553 -10 c-3 -8 -6 -5 -6 6 -1 11 2 17 5 13 3 -3 4 -12 1 -19z
m1873 6 c0 -8 -14 -9 -47 -3 -63 12 -64 17 -4 15 30 0 51 -6 51 -12z m440 6
c0 -5 -2 -10 -4 -10 -3 0 -8 5 -11 10 -3 6 -1 10 4 10 6 0 11 -4 11 -10z m630
-15 c0 -2 -8 -3 -18 -2 -10 0 -19 7 -19 13 0 9 5 10 19 3 10 -5 18 -12 18 -14z
m35 15 c3 -5 1 -10 -4 -10 -6 0 -11 5 -11 10 0 6 2 10 4 10 3 0 8 -4 11 -10z
m-2928 -6 c-3 -3 -12 -4 -19 -1 -8 3 -5 6 6 6 11 1 17 -2 13 -5z m1877 -9 c4
-12 2 -13 -13 -6 -10 6 -21 7 -25 4 -3 -3 -6 -1 -6 5 0 18 37 15 44 -3z m966
11 c0 -2 -9 -6 -20 -9 -11 -3 -18 -1 -14 4 5 9 34 13 34 5z m196 -18 c3 -4 13
-4 22 -1 10 4 13 2 8 -5 -8 -14 -36 -16 -36 -3 0 4 -11 6 -24 4 -13 -3 -32 -1
-41 4 -12 7 -6 9 24 8 22 -1 43 -4 47 -7z m-4136 -20 c0 -23 -16 -23 -28 -2
-6 11 -11 13 -16 5 -4 -6 -12 -11 -17 -11 -5 0 -4 6 3 14 18 19 58 15 58 -6z
m229 18 c-2 -2 -21 -11 -41 -19 -41 -17 -53 -9 -15 9 21 11 65 18 56 10z
m3426 -6 c3 -5 1 -10 -4 -10 -6 0 -11 5 -11 10 0 6 2 10 4 10 3 0 8 -4 11 -10z
m603 -14 c-7 -8 -15 -12 -17 -11 -5 6 10 25 20 25 5 0 4 -6 -3 -14z m-3191
-18 c-3 -8 -6 -5 -6 6 -1 11 2 17 5 13 3 -3 4 -12 1 -19z m-1862 2 c3 -5 1
-10 -4 -10 -6 0 -11 5 -11 10 0 6 2 10 4 10 3 0 8 -4 11 -10z m193 -3 c14 5
14 2 -3 -17 l-20 -23 23 12 c12 6 22 17 23 24 0 9 2 8 6 -1 4 -10 8 -10 20 -1
12 10 16 10 24 -2 7 -12 9 -12 10 1 0 9 2 11 5 3 3 -7 12 -9 20 -6 8 3 14 0
14 -7 0 -8 4 -9 13 -3 17 13 40 10 45 -6 3 -9 -1 -11 -16 -7 -12 4 -26 1 -35
-8 -13 -14 -16 -14 -21 -1 -3 8 -13 15 -21 15 -9 0 -13 -5 -10 -10 4 -6 11 -8
16 -5 5 4 9 1 9 -5 0 -6 -10 -8 -22 -5 -13 3 -45 6 -73 8 -29 1 -56 8 -63 17
-8 8 -11 9 -7 3 3 -7 4 -13 1 -13 -2 0 -12 -3 -22 -7 -12 -5 -15 -3 -9 6 6 10
3 11 -13 2 -24 -13 -44 6 -21 20 26 16 80 14 91 -5 5 -6 8 -1 9 14 0 14 3 20
5 13 3 -7 13 -9 22 -6z m3922 -3 c0 -13 -3 -14 -13 -5 -8 6 -17 8 -20 4 -4 -3
-7 -1 -7 5 0 7 9 12 20 12 12 0 20 -7 20 -16z m1020 6 c0 -5 -5 -10 -11 -10
-5 0 -7 5 -4 10 3 6 8 10 11 10 2 0 4 -4 4 -10z m-4724 -18 c5 3 18 2 29 -2
11 -4 30 -3 43 1 17 7 21 6 16 -3 -5 -8 0 -9 15 -5 15 3 21 1 18 -6 -2 -7 -11
-11 -20 -11 -9 1 -14 -3 -11 -8 4 -6 1 -8 -7 -6 -8 3 -13 9 -12 14 1 5 -10 9
-23 9 -13 0 -24 -4 -24 -10 0 -6 -3 -5 -8 1 -4 7 -15 8 -27 3 -21 -8 -19 -9
45 -13 8 -1 21 -5 28 -9 17 -12 122 -16 122 -5 0 20 20 6 21 -14 0 -22 1 -22
9 -3 8 19 9 19 16 -5 l8 -25 6 25 c4 14 12 24 19 22 7 -1 10 2 6 8 -3 5 -17 7
-31 4 -14 -4 -31 -1 -39 6 -10 9 -15 9 -15 1 0 -6 -13 -11 -30 -11 -32 0 -38
11 -17 28 8 7 18 7 27 2 8 -5 18 -6 22 -3 5 2 16 -1 24 -8 10 -8 18 -9 22 -3
4 5 20 7 37 4 l30 -5 -22 -22 c-12 -12 -18 -25 -13 -28 6 -4 10 -10 10 -15 0
-10 -42 -6 -102 11 -24 7 -56 11 -71 10 -16 -1 -34 2 -40 6 -11 7 -40 11 -114
16 -18 1 -31 7 -30 12 2 6 13 9 24 7 11 -1 26 4 33 13 9 11 9 15 1 15 -7 0 -9
5 -5 11 5 8 9 8 14 -1 4 -7 12 -10 16 -8z m2068 2 c6 -15 4 -15 -11 -3 -10 7
-20 15 -22 16 -2 2 3 3 11 3 9 0 19 -7 22 -16z m1716 4 c0 -4 -16 -8 -35 -8
-46 0 -46 15 0 16 19 0 35 -3 35 -8z m35 2 c3 -5 2 -10 -4 -10 -5 0 -13 5 -16
10 -3 6 -2 10 4 10 5 0 13 -4 16 -10z m-795 -18 c0 -4 -21 -18 -47 -31 -27
-13 -83 -47 -125 -77 -43 -30 -82 -54 -88 -54 -5 0 -10 -4 -10 -9 0 -5 -13
-14 -30 -21 -16 -7 -30 -16 -30 -21 0 -5 -7 -9 -15 -9 -8 0 -15 -3 -15 -8 0
-4 -17 -16 -37 -27 -21 -11 -43 -26 -48 -33 -12 -15 -85 -29 -85 -16 0 5 20
20 45 33 25 13 45 27 45 31 0 4 10 10 23 14 12 3 36 17 52 32 17 14 46 32 65
40 19 8 37 18 40 22 8 13 84 57 93 54 4 -1 7 2 7 7 0 5 21 19 46 31 26 12 53
28 61 36 15 15 53 19 53 6z m867 2 c-3 -3 -12 -4 -19 -1 -8 3 -5 6 6 6 11 1
17 -2 13 -5z m97 -6 c-3 -4 -1 -8 5 -8 5 0 13 5 16 10 5 8 11 8 19 1 7 -6 16
-8 19 -4 4 3 7 2 7 -4 0 -7 -24 -9 -67 -6 -78 5 -104 18 -38 18 24 1 41 -3 39
-7z m-3599 -8 c-3 -5 -14 -10 -23 -9 -14 0 -13 2 3 9 27 11 27 11 20 0z m1068
2 c-7 -5 -14 -20 -15 -35 -1 -16 -9 -27 -18 -28 -8 0 -10 -3 -4 -5 6 -2 9 -21
6 -42 -2 -20 -4 -43 -4 -49 -1 -7 -5 -13 -10 -13 -11 0 -10 37 1 45 6 3 6 17
1 35 -6 21 -4 32 6 41 8 6 14 19 14 29 0 19 9 30 24 30 7 0 6 -3 -1 -8z m-981
-25 c-4 -14 -7 -16 -13 -5 -12 19 -11 25 5 25 8 0 11 -8 8 -20z m918 13 c0 -5
-5 -10 -11 -10 -5 0 -7 5 -4 10 3 6 8 10 11 10 2 0 4 -4 4 -10z m2715 0 c3 -5
-1 -10 -9 -10 -8 0 -18 5 -21 10 -3 6 1 10 9 10 8 0 18 -4 21 -10z m115 -10
c0 -11 -50 -19 -56 -8 -3 5 -15 6 -27 3 -13 -4 -17 -3 -10 2 15 11 93 13 93 3z
m-4596 -9 c3 -5 -8 -14 -24 -20 -32 -11 -39 -28 -15 -37 15 -6 95 34 95 47 0
5 15 6 33 4 122 -13 153 -17 160 -22 4 -2 7 2 7 9 0 10 2 10 9 -1 5 -8 27 -15
48 -17 21 -1 65 -5 98 -9 33 -4 70 -8 83 -7 19 0 21 -2 10 -16 -11 -13 -10
-14 8 -4 12 6 23 9 26 7 2 -3 27 -7 56 -11 28 -3 73 -14 101 -24 28 -10 49
-14 46 -10 -3 5 9 7 27 4 18 -3 53 -5 78 -5 25 1 52 -3 59 -8 9 -6 22 -6 32 0
12 6 20 5 25 -3 5 -7 3 -8 -6 -3 -8 5 -11 4 -7 -2 3 -5 23 -9 44 -7 21 1 43
-1 48 -4 19 -12 45 -12 45 0 0 7 5 5 13 -4 6 -9 32 -19 57 -22 92 -11 117 -16
195 -32 102 -22 157 -23 163 -5 3 9 0 11 -7 7 -7 -4 -18 -3 -24 3 -14 11 -138
33 -194 34 -18 1 -33 4 -33 7 0 3 -17 7 -38 8 -72 7 -77 8 -75 18 1 5 -15 10
-35 11 -20 1 -53 4 -72 6 -19 3 -45 6 -58 6 -13 1 -21 5 -17 10 3 6 -6 6 -24
1 -26 -7 -28 -6 -24 14 4 16 2 18 -5 7 -6 -8 -17 -11 -26 -8 -8 3 -18 2 -21
-3 -4 -7 -13 -6 -25 0 -10 5 -25 7 -33 4 -8 -3 -18 0 -23 7 -4 7 -3 10 3 6 6
-4 16 0 23 8 7 8 16 13 20 10 6 -4 79 -13 140 -18 14 -1 28 -8 31 -16 4 -11 8
-11 21 3 15 14 17 14 22 0 4 -11 14 -14 28 -11 12 3 29 2 40 -4 10 -5 42 -12
70 -15 29 -2 59 -5 66 -6 6 -1 12 -5 12 -9 0 -5 7 -6 15 -3 8 3 36 1 62 -4 27
-6 114 -21 196 -33 81 -12 147 -26 147 -31 0 -5 8 -8 17 -6 10 2 19 -4 21 -14
3 -14 -3 -18 -26 -18 -35 0 -64 9 -58 19 2 3 -13 6 -35 6 -22 1 -33 -2 -26 -7
9 -6 9 -8 0 -8 -7 0 -18 6 -24 13 -10 10 -18 7 -41 -17 -30 -29 -31 -56 -3
-56 8 0 15 -3 15 -7 0 -5 29 -9 65 -11 59 -2 65 -1 65 18 0 15 6 19 25 18 14
-1 25 -6 25 -10 0 -4 16 -4 35 -1 19 3 35 2 35 -3 0 -5 17 -10 38 -12 84 -4
156 -14 171 -21 9 -5 45 -12 81 -16 75 -8 81 -9 135 -23 22 -5 56 -10 75 -11
19 -1 51 -4 70 -7 19 -3 50 -7 68 -8 17 0 32 -4 32 -8 0 -4 14 -5 30 -1 18 3
30 1 30 -5 0 -6 6 -12 13 -15 6 -2 3 -3 -7 -1 -11 2 -34 -3 -52 -11 -23 -9
-34 -10 -36 -3 -3 8 -10 7 -24 -1 -14 -10 -15 -11 -2 -7 10 3 20 1 22 -3 3 -5
18 -7 33 -4 26 3 26 3 6 -6 -13 -6 -23 -13 -23 -16 0 -4 4 -4 9 -1 15 10 19
-54 4 -72 -13 -16 -14 -15 -9 3 3 11 1 27 -4 35 -8 13 -10 13 -10 -2 0 -15 -4
-15 -31 -6 -24 8 -33 7 -42 -3 -7 -8 -8 -10 -3 -6 5 3 15 -1 23 -11 8 -9 12
-11 8 -4 -3 6 -3 12 2 12 11 0 40 -20 30 -20 -4 0 -2 -6 5 -14 7 -7 19 -11 26
-8 8 2 16 -4 19 -17 3 -11 9 -18 14 -15 5 3 9 1 9 -4 0 -5 10 -13 21 -18 19
-9 17 -10 -14 -10 -20 0 -33 4 -31 8 3 4 -1 8 -9 8 -8 0 -29 14 -47 30 -18 17
-36 30 -42 30 -5 0 -16 7 -25 16 -9 8 -22 13 -29 10 -7 -3 -16 -1 -19 3 -7 12
-155 14 -155 2 0 -15 -59 -34 -87 -27 -16 4 -41 9 -58 12 -30 6 -48 22 -39 35
2 4 -3 9 -11 11 -10 2 -6 7 11 15 21 10 24 10 14 -2 -8 -9 -8 -15 0 -20 6 -3
8 -11 5 -16 -4 -5 -1 -9 4 -9 6 0 11 6 12 13 0 6 4 3 9 -8 5 -11 9 -14 9 -7 1
9 8 11 22 7 13 -4 25 -2 29 5 4 7 28 13 51 14 24 1 47 6 52 13 4 7 13 10 21 7
7 -3 13 2 13 10 0 8 -4 13 -9 10 -4 -3 -8 3 -9 13 -1 13 -3 11 -8 -6 -4 -14
-13 -26 -21 -29 -12 -3 -13 -2 -1 6 10 7 11 14 2 28 -9 17 -10 17 -11 2 0 -10
-5 -18 -11 -18 -5 0 -7 -4 -4 -10 4 -6 -1 -7 -11 -3 -11 4 -13 8 -6 11 7 2 12
10 12 18 0 8 -6 11 -15 8 -8 -4 -15 -1 -15 5 0 6 -7 8 -17 4 -11 -4 -14 -3 -9
5 4 7 2 12 -4 12 -8 0 -10 -10 -6 -27 l6 -28 -15 25 c-8 14 -14 19 -15 12 0
-8 -10 -11 -30 -7 -21 4 -32 1 -36 -10 -3 -8 -21 -20 -40 -27 -33 -12 -48 -31
-21 -27 23 3 37 -1 37 -10 0 -5 -16 -5 -37 -1 -20 5 -39 8 -42 8 -3 0 -8 0
-11 1 -8 3 -93 14 -117 15 -15 1 -23 7 -23 18 0 12 5 15 16 11 9 -3 20 0 25 8
4 8 14 14 21 14 7 0 12 8 12 18 -1 9 2 15 6 12 5 -3 11 -1 15 5 3 5 -3 10 -14
10 -12 0 -21 -4 -21 -10 0 -5 -4 -10 -10 -10 -5 0 -10 6 -10 14 0 10 -7 12
-22 8 -22 -5 -22 -5 -5 12 9 10 17 23 17 29 0 7 -4 6 -11 -3 -8 -11 -9 -7 -4
16 4 23 2 33 -9 37 -16 6 -18 1 -19 -40 0 -13 -4 -23 -8 -23 -5 0 -9 -5 -9
-11 0 -5 6 -7 13 -3 6 4 4 -2 -5 -13 -23 -25 -23 -62 -1 -78 15 -11 13 -12
-12 -8 -17 2 -36 5 -43 5 -7 1 -12 8 -11 17 4 30 -13 71 -30 71 -14 0 -14 2
-1 10 9 5 19 5 27 -2 10 -8 13 -7 13 3 0 11 2 11 10 -1 13 -20 13 -33 0 -25
-5 3 -10 2 -10 -4 0 -5 5 -13 10 -16 11 -7 14 0 25 49 6 28 5 28 -27 22 -88
-18 -90 -18 -77 -27 11 -7 11 -9 1 -9 -7 0 -10 -5 -7 -10 4 -6 16 -8 28 -4 20
6 20 5 8 -10 -8 -9 -20 -15 -28 -12 -7 3 -13 1 -13 -4 0 -15 47 -12 54 3 3 6
4 1 3 -13 -2 -23 -6 -25 -46 -23 -25 2 -50 8 -55 14 -8 9 -5 10 13 6 17 -4 21
-3 13 5 -6 6 -19 7 -29 3 -19 -8 -90 -7 -127 2 -22 5 -52 10 -74 12 -7 0 -11
4 -9 9 3 4 -16 8 -41 9 -42 1 -97 9 -97 13 0 1 -22 4 -50 6 -73 6 -89 8 -100
15 -5 4 -32 10 -60 14 -27 3 -52 10 -55 15 -3 5 -24 8 -45 7 -22 -2 -56 3 -77
9 -20 7 -39 10 -41 7 -3 -3 -3 5 0 18 4 13 8 18 11 11 3 -10 8 -8 19 5 11 14
14 14 10 2 -3 -9 4 -21 15 -28 16 -10 18 -10 12 0 -5 9 -2 10 12 4 32 -13 105
-15 97 -1 -4 6 1 5 10 -3 9 -7 23 -11 32 -8 8 4 19 -1 24 -11 5 -9 12 -14 16
-11 3 4 -1 14 -10 22 -8 9 -15 22 -15 29 0 10 -3 9 -10 -2 -5 -8 -12 -11 -17
-7 -10 11 17 27 34 20 7 -3 13 0 13 6 0 6 4 11 10 11 5 0 7 -13 4 -30 -4 -20
-2 -30 5 -30 7 0 9 5 6 10 -3 6 -2 10 4 10 17 0 23 -20 11 -35 -9 -11 -6 -13
17 -11 24 3 29 8 31 37 l4 34 12 -35 c8 -24 17 -34 29 -32 20 3 23 -14 5 -21
-10 -4 -10 -6 0 -6 7 -1 17 10 22 24 5 14 12 25 16 25 3 0 3 -11 0 -25 -4 -16
-2 -25 5 -25 7 0 9 3 6 6 -3 4 0 16 8 28 18 24 19 36 4 36 -5 0 -7 -5 -4 -10
4 -7 -2 -9 -18 -5 -14 4 -28 2 -31 -4 -16 -25 -28 -10 -23 27 4 20 3 31 -2 24
-8 -14 -32 -13 -42 1 -3 5 -9 -1 -12 -12 -3 -12 -1 -19 3 -16 5 3 8 -4 7 -15
-2 -24 -16 -12 -22 20 -5 28 -15 39 -15 17 0 -9 -4 -17 -9 -17 -5 0 -8 8 -7
18 1 13 -6 17 -31 15 -18 -1 -33 2 -33 7 0 4 -7 11 -16 14 -8 3 -13 2 -11 -2
3 -4 -2 -13 -10 -21 -13 -12 -14 -11 -9 10 l7 24 -14 -23 c-7 -12 -16 -19 -20
-16 -6 7 -11 -18 -8 -38 0 -5 -6 -8 -14 -8 -9 0 -15 6 -14 13 3 28 -2 39 -16
33 -8 -3 -15 -2 -15 3 0 5 9 11 20 14 11 3 18 2 16 -2 -3 -4 0 -13 5 -21 7
-11 9 -6 7 19 -3 36 -27 56 -29 24 0 -16 -1 -16 -9 2 -8 18 -9 18 -9 2 -1 -10
-6 -15 -11 -12 -6 4 -7 11 -4 17 4 7 2 8 -5 4 -6 -4 -18 -2 -26 4 -16 13 -21
35 -6 26 5 -4 8 1 7 10 -1 9 -11 21 -21 26 -13 8 -16 7 -11 -1 4 -6 1 -11 -8
-11 -9 0 -16 -4 -16 -10 0 -5 4 -10 9 -10 5 0 12 -7 15 -16 3 -8 2 -12 -4 -9
-6 3 -10 0 -10 -7 0 -7 -6 -2 -13 11 -6 14 -19 26 -27 28 -13 4 -13 3 0 -6 21
-14 7 -23 -21 -13 -17 7 -31 5 -46 -6 -13 -8 -23 -10 -23 -4 0 6 6 13 13 15 6
3 2 6 -10 6 -15 1 -21 -3 -17 -13 3 -8 1 -17 -5 -21 -6 -3 -9 0 -6 7 3 8 -1
22 -8 32 -13 18 -14 17 -12 -12 2 -30 -12 -38 -27 -17 -13 18 -15 0 -1 -25 7
-14 13 -18 13 -10 0 10 10 15 28 15 15 0 41 4 57 8 27 6 28 6 13 -6 -10 -8
-15 -17 -11 -20 3 -4 1 -7 -5 -7 -5 0 -12 5 -14 12 -2 6 -10 8 -17 4 -7 -5
-10 -14 -7 -22 3 -8 0 -11 -10 -7 -7 3 -14 0 -14 -6 0 -15 23 -14 38 1 9 9 12
9 12 0 0 -7 9 -12 21 -12 16 0 19 4 14 20 -4 12 0 26 9 36 10 9 16 11 16 4 0
-7 7 -5 16 5 22 22 28 13 26 -41 -2 -32 1 -43 9 -38 8 5 9 3 4 -5 -5 -9 -20
-10 -49 -6 -22 4 -63 8 -90 9 -38 2 -53 7 -64 24 -8 12 -19 22 -24 22 -6 0
-23 9 -38 20 -47 34 -138 52 -199 40 -30 -5 -56 -10 -58 -10 -2 0 -2 -4 1 -9
3 -5 -1 -11 -9 -15 -8 -3 -17 -1 -19 3 -3 5 -16 7 -29 6 -37 -4 -59 19 -60 62
0 21 -2 30 -4 21 -5 -19 -33 -25 -33 -7 0 6 -7 3 -16 -6 -12 -12 -19 -13 -30
-4 -11 9 -14 7 -14 -10 0 -18 3 -20 19 -11 26 14 31 13 31 -6 0 -8 5 -12 10
-9 6 3 10 1 10 -5 0 -8 -7 -9 -17 -5 -10 4 -34 9 -53 11 -48 6 -70 14 -70 24
0 15 31 40 48 40 15 0 15 -2 2 -10 -13 -8 -12 -10 3 -10 12 0 17 8 17 30 0 20
-5 30 -15 30 -18 0 -19 5 -4 33 19 34 51 49 63 28z m806 -1 c0 -5 -10 -15 -22
-21 -13 -7 -26 -16 -29 -21 -9 -14 -61 -14 -66 0 -3 8 1 10 13 5 10 -4 15 -2
11 3 -3 6 3 11 14 11 10 1 26 9 35 17 17 18 44 21 44 6z m3830 0 c0 -5 -4 -10
-9 -10 -6 0 -13 5 -16 10 -3 6 1 10 9 10 9 0 16 -4 16 -10z m40 0 c8 -5 12
-12 9 -15 -8 -8 -39 5 -39 16 0 11 11 11 30 -1z m-1211 -18 c23 -14 27 -21 20
-34 -6 -10 -16 -15 -25 -11 -13 5 -13 7 -2 14 10 7 10 9 -2 9 -8 0 -25 3 -37
6 -14 4 -23 2 -23 -5 0 -5 7 -8 16 -4 14 5 14 3 3 -15 -7 -12 -20 -23 -29 -26
-12 -3 -11 -4 2 -5 10 0 23 8 30 18 9 14 16 17 24 10 14 -12 7 -42 -7 -33 -5
3 -22 -8 -39 -24 -16 -16 -31 -28 -33 -25 -3 2 -14 -8 -26 -23 -11 -15 -21
-24 -21 -20 0 4 -7 0 -16 -8 -19 -19 -35 -21 -30 -3 1 6 1 9 -1 5 -3 -5 -12
-8 -21 -8 -15 0 -15 -2 -2 -10 13 -8 12 -11 -5 -24 -20 -15 -32 -20 -47 -17
-5 0 -8 -6 -8 -14 0 -14 -14 -19 -47 -18 -6 0 -9 -6 -5 -16 5 -14 4 -14 -11
-2 -15 12 -17 12 -11 -2 7 -19 -32 -44 -39 -24 -3 7 -6 5 -6 -5 -1 -11 -9 -18
-22 -18 -11 0 -17 -4 -14 -10 3 -5 -1 -10 -9 -10 -8 0 -20 8 -26 18 -10 15
-11 15 -7 -5 3 -13 -1 -24 -9 -27 -8 -3 -14 0 -14 7 0 8 -3 7 -9 -2 -11 -17
-51 -25 -51 -11 0 6 7 10 15 10 8 0 15 5 15 10 0 6 9 10 21 10 14 0 19 5 16
14 -7 17 16 28 38 20 27 -11 16 22 -12 36 l-28 13 33 11 c18 6 30 15 25 20 -4
5 -3 6 4 3 6 -4 19 0 27 9 9 8 16 12 16 8 0 -4 7 1 15 12 8 11 14 14 15 6 0
-10 3 -10 14 0 8 7 12 16 10 20 -3 4 7 10 21 14 14 3 25 10 25 15 0 5 7 9 15
9 8 0 15 3 15 8 0 18 39 31 69 22 19 -5 31 -5 31 1 0 5 -9 9 -19 9 -11 0 -23
5 -27 12 -4 7 -3 8 4 4 7 -4 12 -2 12 5 0 8 4 8 13 2 8 -7 22 -6 42 4 l30 14
-30 -6 c-28 -5 -29 -5 -10 10 11 8 25 18 30 23 6 5 15 7 21 5 6 -2 19 6 29 17
22 24 27 25 64 2z m-3626 -7 c-3 -9 -8 -14 -10 -11 -3 3 -2 9 2 15 9 16 15 13
8 -4z m1927 11 c0 -2 -7 -7 -16 -10 -8 -3 -12 -2 -9 4 6 10 25 14 25 6z m2990
-6 c0 -5 -4 -10 -10 -10 -5 0 -10 5 -10 10 0 6 5 10 10 10 6 0 10 -4 10 -10z
m66 0 c13 0 24 -4 24 -8 0 -14 -69 -8 -75 7 -4 9 0 11 11 7 8 -3 27 -6 40 -6z
m54 -10 c0 -5 -4 -10 -10 -10 -5 0 -10 5 -10 10 0 6 5 10 10 10 6 0 10 -4 10
-10z m30 -20 c0 -5 -2 -10 -4 -10 -3 0 -8 5 -11 10 -3 6 -1 10 4 10 6 0 11 -4
11 -10z m90 -6 c0 -2 -9 -4 -21 -4 -11 0 -18 4 -14 10 5 8 35 3 35 -6z m50 -4
c0 -5 -4 -10 -9 -10 -6 0 -13 5 -16 10 -3 6 1 10 9 10 9 0 16 -4 16 -10z m45
0 c18 -8 17 -9 -7 -9 -16 -1 -28 4 -28 9 0 12 8 12 35 0z m-3359 -61 c-3 -17
-1 -29 7 -32 6 -2 1 -6 -11 -9 -17 -5 -22 -2 -22 13 0 10 6 19 13 19 8 0 7 4
-3 10 -12 7 -12 10 -1 10 8 0 11 6 7 16 -4 9 -2 13 5 8 6 -3 9 -19 5 -35z m64
-42 c0 -1 -9 -3 -20 -4 -15 -1 -20 4 -20 23 l0 24 20 -20 c11 -11 20 -21 20
-23z m-1751 -4 c0 -25 -1 -26 -9 -8 -12 27 -12 35 0 35 6 0 10 -12 9 -27z
m3381 -2 c5 -11 10 -29 10 -40 0 -12 5 -21 12 -21 6 0 8 -3 5 -7 -11 -10 -53
41 -53 65 0 27 12 28 26 3z m-3558 0 c2 -5 14 -11 28 -13 14 -1 27 -6 30 -10
3 -3 25 -9 50 -12 96 -11 172 -34 163 -48 -5 -9 -8 -9 -11 0 -2 8 -9 9 -21 2
-13 -7 -24 -4 -39 10 -12 11 -23 16 -26 11 -3 -5 -36 0 -73 10 -38 11 -83 22
-100 26 -18 3 -33 12 -33 19 0 15 26 19 32 5z m-4 -43 c6 -1 12 -7 12 -15 0
-17 20 -17 21 0 0 9 2 9 5 0 3 -7 12 -9 20 -6 8 3 14 0 14 -7 0 -7 8 -9 20 -5
14 4 22 1 26 -10 5 -13 9 -14 15 -4 4 8 11 10 14 7 4 -4 0 -17 -9 -30 -9 -12
-16 -17 -16 -10 0 8 -9 12 -21 10 -15 -2 -23 -11 -25 -30 -2 -22 0 -25 10 -15
8 6 11 18 8 26 -4 9 -1 12 7 7 7 -4 9 -16 5 -28 -5 -17 -3 -18 15 -9 16 9 21
9 21 0 0 -7 8 -5 20 6 11 10 23 15 27 12 3 -4 1 -7 -5 -7 -7 0 -12 -4 -12 -10
0 -12 22 -9 33 5 5 6 6 2 3 -8 -3 -10 -6 -23 -6 -29 0 -6 -6 -6 -15 2 -12 10
-15 10 -15 0 0 -9 -4 -9 -12 -3 -7 6 -20 11 -28 11 -74 5 -150 36 -157 63 -3
10 -9 19 -14 19 -5 0 -6 7 -3 15 4 8 1 15 -4 15 -6 0 -10 9 -9 19 1 14 7 18
22 14 11 -2 26 -5 33 -5z m882 -7 c0 -11 -5 -23 -12 -27 -8 -5 -9 -2 -4 11 4
11 2 22 -6 27 -10 6 -8 8 5 8 10 0 17 -8 17 -19z m1099 3 c3 -5 22 -10 41 -11
19 0 67 -4 105 -8 39 -4 78 -7 88 -7 11 1 15 -4 10 -11 -5 -9 -3 -9 8 -2 24
17 89 4 89 -18 0 -6 7 -2 15 9 8 10 15 14 15 7 0 -6 8 -10 18 -9 9 2 19 0 22
-5 3 -4 34 -10 70 -13 36 -2 76 -7 90 -10 14 -2 45 -7 70 -11 51 -7 61 -9 148
-23 34 -6 87 -10 118 -8 37 2 54 0 51 -8 -4 -12 -77 -27 -77 -16 0 9 -58 5
-68 -5 -4 -4 4 -4 17 0 15 4 21 3 17 -3 -4 -6 15 -9 54 -6 38 2 59 0 55 -6 -3
-6 1 -7 10 -3 13 5 14 7 3 14 -7 5 -8 9 -3 9 6 -1 18 -7 28 -14 16 -13 16 -14
1 -20 -9 -3 -39 -3 -67 0 -47 7 -68 9 -126 12 -21 2 -22 4 -10 19 12 15 12 16
-6 9 -11 -5 -27 -8 -35 -8 -8 1 -36 2 -62 2 -48 1 -69 19 -25 21 14 1 9 4 -13
8 -35 7 -57 2 -32 -6 20 -8 14 -22 -8 -16 -11 3 -20 11 -20 19 0 7 -4 16 -10
19 -5 3 -7 0 -4 -8 3 -8 0 -18 -6 -22 -6 -3 -10 -3 -9 2 3 19 -2 27 -9 15 -7
-9 -15 -10 -35 -3 -14 6 -27 7 -29 3 -2 -4 -21 -4 -43 -1 -22 3 -30 7 -17 8
12 0 22 6 22 12 0 6 -9 8 -20 4 -13 -4 -20 -2 -20 6 0 7 -7 4 -15 -7 -11 -15
-17 -16 -23 -6 -5 8 -22 11 -44 8 -20 -2 -39 -2 -42 2 -4 3 -26 6 -51 7 -24 1
-55 9 -69 18 -13 9 -34 14 -47 12 -13 -3 -27 1 -31 8 -4 6 -8 7 -8 2 0 -6 -17
-9 -40 -7 -22 2 -40 9 -40 14 0 5 -6 8 -12 5 -7 -2 -23 0 -35 4 -14 5 -23 5
-23 -1 0 -6 -11 -3 -25 6 -14 9 -23 20 -20 24 7 11 106 5 114 -6z m-1064 -52
c-9 -9 -25 19 -24 43 0 16 2 15 15 -8 9 -16 13 -32 9 -35z m1965 48 c0 -5 -5
-10 -11 -10 -5 0 -7 5 -4 10 3 6 8 10 11 10 2 0 4 -4 4 -10z m-1833 -34 c-7
-7 -22 -18 -35 -25 -18 -10 -22 -9 -22 3 0 8 5 18 10 21 6 3 10 0 10 -6 0 -7
8 -4 17 8 10 12 21 19 25 17 5 -3 2 -11 -5 -18z m2403 4 c8 -5 13 -10 10 -11
-3 0 -15 -2 -27 -5 -22 -4 -30 6 -16 19 9 9 15 9 33 -3z m-3264 -21 c4 -8 9
-7 15 2 7 12 9 12 9 0 0 -7 6 -11 14 -8 9 4 13 -2 12 -17 0 -14 -6 -22 -13
-19 -7 3 -13 8 -13 12 0 12 -54 11 -62 -1 -6 -10 -8 -9 -8 3 0 16 19 39 31 39
4 0 11 -5 15 -11z m3404 7 c0 -3 -4 -8 -10 -11 -5 -3 -10 -1 -10 4 0 6 5 11
10 11 6 0 10 -2 10 -4z m-480 -37 c0 -14 -25 -39 -39 -39 -6 0 -11 5 -11 11 0
22 -18 -2 -24 -32 l-6 -32 -30 38 c-34 43 -39 56 -11 31 18 -17 21 -16 63 8
49 28 58 30 58 15z m256 -11 c4 -7 4 -10 -1 -6 -4 4 -14 3 -22 -3 -10 -9 -13
-8 -13 5 0 19 26 22 36 4z m407 -2 c9 -7 17 -16 17 -19 0 -10 -50 -57 -61 -57
-5 0 -14 -11 -19 -25 -5 -14 -20 -27 -35 -31 -14 -3 -25 -12 -25 -20 0 -8 -6
-14 -12 -14 -7 -1 -29 -14 -48 -30 -19 -17 -38 -30 -43 -30 -9 0 -71 -42 -75
-52 -2 -3 -23 -12 -48 -19 -24 -7 -44 -17 -44 -22 0 -4 6 -5 13 -1 6 4 3 -2
-8 -13 -11 -11 -26 -18 -32 -15 -7 2 -13 -1 -13 -8 0 -6 -4 -9 -9 -5 -5 3 -16
-2 -24 -10 -9 -8 -23 -15 -31 -15 -9 0 -16 -5 -16 -11 0 -6 -7 -8 -15 -5 -9 3
-24 0 -34 -6 -15 -9 -39 -8 -105 2 -92 14 -116 30 -40 26 25 -1 47 1 50 6 3 5
14 6 25 3 12 -4 21 -1 25 9 3 9 12 16 20 16 8 0 14 4 14 10 0 5 11 13 26 16
18 5 29 1 40 -12 15 -18 15 -18 11 4 -5 23 0 27 21 13 14 -8 99 25 89 36 -3 2
-15 0 -26 -7 -12 -6 -26 -8 -31 -5 -6 3 -10 1 -10 -5 0 -7 -5 -8 -17 -1 -11 6
-25 6 -38 0 -20 -10 -20 -10 0 6 11 8 25 13 33 10 7 -2 15 2 18 10 4 8 12 15
20 15 8 0 14 5 14 10 0 6 6 10 14 10 8 0 17 8 20 17 5 12 10 13 18 5 8 -8 15
-8 24 -1 7 6 19 7 26 3 24 -15 48 -14 73 2 14 9 22 20 19 26 -3 5 2 16 12 24
18 14 18 14 -3 5 -31 -16 -33 -14 -20 19 12 31 31 43 20 13 -5 -15 -3 -15 9 1
10 13 21 17 33 12 15 -5 16 -4 6 8 -8 10 -9 16 -1 21 13 8 32 -4 25 -16 -4 -5
5 -9 19 -9 19 0 24 4 19 16 -5 13 -7 13 -14 2 -9 -14 -9 -14 -13 19 -3 30 22
38 43 14 16 -19 17 -18 32 8 13 22 13 28 3 28 -8 0 -14 -6 -14 -14 0 -7 -4
-13 -10 -13 -15 0 -12 27 6 44 19 19 53 20 77 2z m-469 -28 c-4 -6 0 -15 7
-20 10 -7 7 -7 -8 -3 -13 3 -23 4 -23 0 0 -3 10 -10 23 -15 22 -10 22 -10 -3
-7 -19 1 -26 8 -28 31 -2 18 0 26 7 21 6 -3 11 -1 11 5 0 6 5 8 10 5 6 -4 7
-11 4 -17z m196 -13 c0 -19 -20 -28 -52 -23 -22 3 -22 4 7 20 39 21 45 21 45
3z m-3407 -31 c9 -4 17 -11 17 -16 0 -5 -4 -6 -10 -3 -5 3 -10 2 -10 -3 0 -5
9 -12 20 -15 17 -4 19 -2 13 20 -4 18 -2 24 6 19 6 -4 11 -13 11 -21 0 -8 5
-17 11 -21 7 -4 9 0 4 14 -6 20 -4 21 24 11 17 -6 31 -15 31 -20 0 -13 -14
-11 -29 4 -10 10 -11 9 -6 -5 4 -10 16 -18 27 -18 10 0 16 -4 13 -10 -3 -6 1
-7 9 -4 9 4 16 1 16 -6 0 -8 -9 -10 -27 -6 -16 4 -34 7 -40 8 -7 1 -13 6 -13
11 0 6 -3 8 -6 5 -10 -11 -94 24 -109 45 -21 30 -19 38 8 27 12 -6 30 -13 40
-16z m3266 17 c9 -6 10 -11 2 -15 -13 -8 -31 1 -31 15 0 11 11 11 29 0z
m-2599 -11 c0 -4 10 -6 22 -6 14 1 24 -6 26 -16 4 -21 -23 -25 -32 -5 -5 9 -7
9 -12 0 -3 -7 -13 -10 -22 -7 -9 3 -6 -2 8 -10 14 -8 19 -15 11 -16 -9 0 -12
-9 -9 -30 3 -16 1 -30 -3 -30 -10 0 -20 30 -13 41 3 6 -3 18 -14 27 -10 9 -17
23 -15 30 3 6 0 12 -7 12 -6 0 -8 5 -5 10 7 11 65 10 65 0z m1970 -30 c0 -5
-9 -6 -20 -3 -11 3 -17 9 -15 14 7 10 35 1 35 -11z m1096 4 c-3 -9 -6 -34 -6
-55 0 -24 -4 -38 -10 -34 -5 3 -10 -1 -10 -9 0 -10 -6 -13 -15 -10 -8 4 -15 1
-15 -5 0 -6 5 -11 11 -11 5 0 7 -4 4 -10 -3 -5 -11 -10 -16 -10 -6 0 -7 5 -3
11 5 9 -1 10 -20 5 -18 -4 -25 -3 -21 4 3 6 -3 10 -14 10 -26 0 -26 -1 -2 -29
13 -15 20 -18 24 -9 2 7 8 9 13 5 5 -4 2 -12 -6 -18 -11 -6 -21 -2 -37 16 -22
25 -40 34 -28 15 3 -5 -1 -10 -9 -10 -9 0 -16 -4 -16 -10 0 -5 5 -10 10 -10 6
0 10 -5 10 -12 0 -9 -3 -9 -11 -1 -13 13 -74 -18 -83 -43 -3 -9 -13 -14 -20
-11 -8 3 -17 -1 -20 -9 -3 -9 -9 -13 -14 -11 -4 3 -16 -1 -27 -9 -10 -8 -13
-14 -7 -14 7 0 11 -3 11 -7 -3 -19 2 -33 12 -33 6 0 8 8 4 19 -3 11 0 23 6 27
8 4 9 3 5 -4 -14 -22 5 -34 25 -16 24 22 36 11 21 -18 -6 -13 -11 -17 -11 -10
-1 6 -5 12 -11 12 -5 0 -6 -8 -3 -17 6 -16 5 -16 -10 -4 -17 13 -22 7 -19 -20
1 -4 -10 -10 -23 -13 -14 -4 -25 -11 -25 -16 0 -6 -7 -10 -16 -10 -8 0 -12 -5
-9 -10 4 -6 -7 -13 -24 -16 -19 -4 -31 -13 -31 -23 0 -12 -2 -13 -9 -3 -7 11
-9 10 -15 -3 -3 -9 -10 -13 -16 -10 -5 3 -10 1 -10 -6 0 -7 -3 -9 -7 -6 -3 4
-13 -2 -20 -13 -8 -11 -18 -18 -23 -15 -4 3 -10 -1 -13 -7 -7 -22 -17 -3 -10
21 3 13 11 20 19 17 7 -3 17 1 23 8 5 6 26 18 46 26 23 9 35 21 36 34 1 17 2
18 6 4 5 -20 33 -25 33 -7 0 7 -8 18 -17 25 -14 10 -15 12 -3 11 8 -2 21 -6
28 -10 16 -10 32 0 32 20 0 9 6 13 15 9 18 -6 19 7 3 33 -11 18 -48 18 -48 0
0 -5 -7 -9 -16 -9 -9 0 -12 -5 -8 -12 4 -7 4 -10 -1 -6 -10 9 -47 -10 -40 -22
3 -4 -4 -6 -15 -3 -15 4 -20 1 -19 -13 0 -11 3 -14 5 -7 7 17 34 4 33 -16 0
-10 -2 -11 -6 -3 -8 20 -23 14 -24 -10 -1 -18 -3 -16 -10 10 -11 35 -12 36
-39 22 -11 -6 -17 -17 -14 -25 4 -8 1 -15 -6 -15 -7 0 -10 -7 -6 -15 3 -8 1
-15 -4 -15 -6 0 -10 9 -10 20 0 30 -14 24 -27 -10 -11 -28 -10 -30 8 -25 11 4
19 2 19 -5 0 -6 -5 -8 -11 -4 -8 4 -9 -1 -4 -15 5 -18 2 -24 -14 -28 -11 -3
-18 -10 -14 -16 3 -6 1 -7 -5 -3 -7 4 -12 2 -12 -4 0 -7 -15 -10 -37 -8 -33 3
-37 6 -39 31 -1 32 -8 42 -24 32 -9 -5 -9 -10 -1 -18 6 -6 11 -19 11 -29 0
-23 -34 -26 -150 -14 -30 4 -71 7 -91 8 -23 1 -40 8 -48 20 -7 11 -7 18 -1 18
5 0 10 -4 10 -9 0 -6 8 -10 18 -10 63 0 102 -5 102 -13 0 -7 4 -7 13 -1 6 6
21 13 31 17 16 5 17 4 6 -9 -11 -14 -10 -14 14 -6 19 8 26 7 27 -2 1 -6 4 -1
9 13 l7 25 9 -22 c7 -17 13 -20 24 -12 11 8 12 12 3 16 -16 6 -17 33 -3 33 6
0 3 11 -7 24 -10 13 -21 22 -25 20 -4 -2 -9 0 -13 6 -3 5 1 10 9 10 9 0 16 5
16 10 0 10 -14 14 -37 11 -7 -1 -13 4 -13 11 -1 8 -6 6 -14 -5 -14 -18 -14
-18 -18 0 -3 16 -5 15 -16 -5 -16 -28 -7 -62 16 -61 11 0 12 3 5 6 -7 2 -13 9
-13 15 0 6 6 6 15 -2 8 -6 19 -9 25 -5 5 3 10 1 10 -4 0 -6 -7 -11 -16 -11
-14 0 -14 -2 -3 -16 12 -15 14 -14 23 5 5 12 13 21 18 21 5 0 1 -14 -9 -30
-15 -26 -19 -28 -29 -16 -9 13 -13 13 -27 1 -9 -8 -12 -10 -7 -3 26 31 4 37
-28 8 -12 -12 -22 -16 -22 -11 0 5 9 16 21 24 14 10 17 17 9 22 -7 4 -10 19
-6 36 4 22 1 29 -14 34 -11 3 -28 1 -39 -4 -15 -8 -23 -7 -33 3 -8 7 -27 14
-43 14 -16 0 -31 5 -33 11 -2 6 -8 11 -14 11 -6 0 -6 -6 2 -15 9 -10 9 -15 1
-15 -6 0 -11 2 -11 4 0 2 -3 12 -6 20 -6 15 2 16 62 11 38 -3 82 -7 99 -10 68
-12 101 -16 125 -16 14 0 32 -3 40 -6 24 -10 34 -9 42 2 5 6 8 6 8 -2 0 -7 9
-13 20 -13 13 0 20 -7 20 -20 0 -26 -39 -28 -41 -2 -1 16 -2 16 -6 0 -2 -10
-8 -18 -12 -18 -4 0 -7 -9 -8 -20 -2 -17 3 -19 25 -15 23 4 24 4 7 -4 -17 -8
-18 -10 -2 -10 9 -1 25 -10 34 -21 21 -24 35 -26 27 -5 -4 8 -1 15 5 15 6 0
11 -5 11 -11 0 -5 5 -7 10 -4 7 4 2 14 -11 26 -12 10 -18 19 -13 19 5 0 2 5
-6 11 -12 8 -11 9 5 7 17 -3 20 2 18 27 -2 22 0 26 7 15 8 -13 10 -13 10 2 0
9 5 20 12 24 6 4 8 3 4 -4 -3 -6 -2 -13 4 -17 6 -4 10 5 10 19 0 18 6 26 18
27 40 2 78 11 87 21 7 8 6 9 -4 3 -10 -6 -12 -4 -7 4 4 6 16 9 26 6 12 -4 19
1 23 16 4 16 10 19 28 14 13 -5 19 -3 15 3 -5 9 10 20 32 22 4 1 10 10 14 21
4 10 14 19 23 19 8 0 15 6 15 13 0 6 8 3 16 -8 11 -14 15 -15 14 -5 -4 31 1
39 30 45 16 4 28 12 27 18 -1 6 3 11 8 12 10 0 25 11 64 46 18 16 41 15 41 -2
0 -6 -5 -7 -12 -3 -7 4 -8 3 -4 -4 4 -7 13 -12 20 -12 16 0 60 50 50 58 -4 4
-9 1 -11 -5 -6 -16 -53 -17 -53 -2 0 5 13 15 29 20 15 6 33 21 39 34 13 27 38
35 28 9z m-2876 -10 c14 -2 54 -7 90 -10 36 -3 72 -8 80 -11 8 -3 21 -5 28 -4
8 1 19 -2 25 -6 7 -5 30 -9 52 -8 22 0 42 -3 45 -6 3 -4 16 -9 30 -10 14 -2
33 -13 42 -24 17 -20 17 -20 11 3 -4 18 -2 21 11 16 9 -3 13 -11 9 -18 -4 -8
-3 -8 7 1 8 7 22 8 42 3 16 -5 36 -6 44 -3 8 3 14 0 14 -7 0 -7 7 -10 15 -6 8
3 15 0 16 -7 0 -9 2 -9 6 0 3 10 10 10 26 1 12 -6 25 -16 29 -22 5 -6 8 -7 8
-1 0 6 14 10 30 10 19 0 30 -5 30 -14 0 -10 3 -11 13 -2 8 6 16 9 18 6 3 -2
20 -7 39 -10 67 -11 90 -17 91 -23 8 -41 5 -52 -14 -52 -16 0 -17 2 -7 15 7 9
10 19 6 22 -19 19 -34 -49 -17 -76 7 -11 11 -10 19 4 10 18 32 13 32 -8 0 -7
-4 -6 -10 3 -8 13 -10 12 -10 -2 0 -10 3 -18 8 -18 4 0 8 -12 9 -26 0 -15 7
-31 15 -36 9 -6 3 -8 -17 -3 -16 3 -38 6 -47 6 -10 0 -18 4 -18 8 0 4 -16 5
-35 3 -22 -3 -35 0 -35 7 0 7 -4 10 -9 6 -5 -3 -12 -1 -16 5 -4 6 -10 8 -15 5
-5 -3 -11 -1 -14 3 -3 5 -17 7 -31 4 -26 -5 -32 8 -19 42 5 13 9 14 20 5 19
-16 18 -1 -1 18 -18 18 -15 26 8 17 19 -7 32 -37 18 -42 -6 -2 -11 -7 -11 -11
0 -11 51 -33 58 -26 4 3 -4 8 -16 12 -12 3 -22 10 -22 15 0 6 7 8 15 5 8 -4
17 -1 21 4 4 7 10 7 17 0 13 -13 27 -14 27 -2 0 10 -48 25 -69 22 -7 -1 -11 4
-8 11 2 7 10 12 16 10 6 -1 10 3 8 9 -1 7 13 12 35 13 20 1 35 -1 33 -4 -1 -3
3 -11 10 -17 11 -10 13 -7 13 16 -1 23 -5 27 -21 23 -11 -3 -18 -1 -14 4 3 5
-3 10 -13 10 -10 0 -16 -6 -13 -13 3 -7 1 -13 -5 -13 -5 0 -13 7 -16 16 -3 8
-10 13 -15 9 -6 -3 -8 -11 -5 -18 3 -9 -8 -13 -38 -14 -75 -2 -75 -2 -58 -13
13 -8 12 -10 -2 -10 -10 0 -18 8 -19 18 0 10 -3 12 -6 4 -6 -15 -23 -6 -23 13
0 9 6 12 16 8 9 -3 20 0 25 8 7 11 9 10 9 -5 0 -15 3 -16 14 -7 9 8 16 8 20 2
9 -14 36 -2 36 15 0 8 -4 14 -10 14 -5 0 -10 -4 -10 -9 0 -6 -9 -9 -20 -8 -11
1 -20 7 -20 14 0 15 -16 17 -25 3 -9 -15 -25 -12 -25 4 0 8 -5 18 -12 22 -7 5
-8 3 -3 -6 6 -9 2 -10 -15 -5 -16 5 -21 4 -18 -6 3 -8 10 -14 16 -14 5 0 14
-3 18 -7 4 -5 2 -8 -4 -8 -9 0 -9 -6 -1 -24 12 -26 47 -40 73 -30 18 7 19 4
10 -20 -3 -9 -12 -16 -19 -16 -8 0 -17 -5 -21 -12 -5 -8 -2 -9 9 -5 10 4 17 2
17 -4 0 -7 -9 -9 -22 -5 -13 3 -49 9 -80 13 -32 3 -58 10 -58 15 0 5 4 7 9 3
10 -5 20 3 46 40 13 19 14 19 11 -5 -2 -14 3 -31 10 -38 11 -10 12 -5 8 25 -4
34 -17 52 -37 53 -5 0 -7 -6 -4 -12 6 -18 -11 -48 -28 -48 -8 0 -18 -7 -23
-16 -6 -10 -12 -13 -16 -6 -3 6 1 17 9 25 19 20 20 33 0 17 -8 -7 -15 -8 -15
-2 0 5 7 15 15 22 8 7 15 20 15 29 0 12 -5 10 -20 -9 -12 -15 -18 -34 -15 -47
5 -22 -10 -34 -32 -25 -16 5 -17 42 -2 42 5 0 8 -4 5 -8 -2 -4 -1 -14 5 -22 6
-11 8 -6 5 15 -2 17 -5 35 -6 40 -9 38 17 63 48 46 10 -6 23 -6 34 0 12 6 18
6 18 -1 0 -5 -7 -10 -16 -10 -10 0 -14 -6 -11 -15 4 -8 2 -17 -3 -20 -16 -10
-11 -25 5 -19 8 4 15 14 15 24 0 11 5 22 10 25 6 3 10 1 10 -6 0 -7 2 -10 5
-8 11 11 -9 50 -24 47 -9 -1 -22 1 -30 6 -10 6 -12 5 -7 -2 5 -8 -2 -10 -23
-6 -27 6 -32 3 -41 -22 -6 -15 -9 -33 -6 -41 3 -7 1 -13 -3 -13 -12 0 -23 32
-14 39 15 12 33 51 23 51 -5 0 -10 -4 -10 -9 0 -4 -12 -7 -26 -5 -18 2 -24 -1
-20 -11 3 -8 1 -17 -4 -20 -6 -4 -10 1 -10 9 0 8 -9 18 -20 21 -31 10 -16 21
24 19 20 -1 36 2 36 7 0 9 -13 11 -60 11 -14 0 -28 5 -32 12 -6 8 -11 7 -18
-4 -16 -25 -12 -50 9 -50 30 0 52 -11 45 -22 -4 -6 -9 -7 -13 -1 -9 14 -74 26
-65 12 4 -7 1 -10 -7 -7 -9 3 -13 17 -12 36 1 23 -3 32 -13 32 -11 0 -13 -6
-9 -21 5 -14 1 -25 -12 -35 -12 -9 -14 -16 -7 -21 6 -5 14 -15 18 -23 3 -8 4
-3 1 13 -3 15 -1 27 5 27 5 0 10 -8 10 -18 0 -10 5 -23 11 -29 8 -8 6 -14 -9
-22 -12 -6 -23 -7 -26 -2 -3 5 -14 7 -25 4 -10 -2 -25 2 -33 11 -11 11 -18 12
-27 3 -6 -6 -11 -7 -11 -1 0 6 -14 9 -30 8 -17 -1 -32 2 -35 7 -3 4 -12 6 -19
3 -17 -7 -27 18 -18 49 7 23 7 23 26 5 17 -16 18 -18 3 -18 -9 0 -17 -4 -17
-8 0 -5 10 -8 23 -6 12 1 27 3 33 3 18 1 26 31 8 31 -8 0 -12 -4 -9 -10 10
-17 -4 -11 -25 10 -16 16 -17 20 -5 20 8 0 15 -4 15 -9 0 -5 9 -7 20 -4 11 3
17 9 15 14 -3 4 -12 6 -19 3 -18 -7 -68 44 -60 59 4 7 4 9 -1 5 -4 -4 -14 -3
-20 2 -9 7 -17 5 -26 -7 -8 -9 -9 -14 -4 -11 6 4 12 -5 13 -20 l1 -27 -14 26
c-8 14 -15 32 -17 40 -2 8 -7 18 -13 22 -9 7 15 5 105 -9z m910 6 c0 -5 -8
-10 -17 -10 -15 0 -16 2 -3 10 19 12 20 12 20 0z m924 2 c2 -4 -7 -8 -22 -9
-24 -2 -24 -1 -7 7 11 5 21 9 22 9 1 1 4 -3 7 -7z m223 2 c-3 -3 -12 -4 -19
-1 -8 3 -5 6 6 6 11 1 17 -2 13 -5z m298 -4 c3 -5 1 -10 -4 -10 -6 0 -11 5
-11 10 0 6 2 10 4 10 3 0 8 -4 11 -10z m101 -9 c-20 -22 -76 -51 -99 -51 -10
0 -15 8 -14 20 1 13 8 20 22 20 16 0 17 -2 5 -10 -12 -8 -11 -10 8 -10 16 0
22 6 22 21 0 17 3 19 14 10 10 -9 16 -8 26 4 7 8 17 15 23 15 5 0 2 -9 -7 -19z
m-530 -7 c32 -3 60 -9 62 -13 1 -4 16 -6 32 -3 32 5 34 1 44 -56 4 -24 2 -31
-6 -26 -8 5 -9 2 -4 -12 5 -10 11 -28 14 -39 3 -11 9 -23 15 -26 5 -4 -3 -9
-17 -11 -15 -3 -26 -1 -26 5 0 7 -4 7 -12 -1 -7 -7 -19 -12 -27 -11 -10 0 -7
4 7 9 22 9 31 30 12 30 -5 0 -10 -4 -10 -10 0 -5 -5 -10 -10 -10 -6 0 -3 12 7
28 15 23 15 25 1 14 -13 -10 -17 -10 -22 3 -3 8 -10 15 -16 15 -14 0 -12 -47
3 -53 7 -3 5 -6 -5 -6 -13 -1 -18 7 -18 24 0 14 -5 25 -11 25 -6 0 -9 -7 -6
-15 4 -8 2 -17 -2 -20 -12 -7 -21 47 -11 66 6 10 5 20 -2 27 -9 9 -9 12 0 12
19 0 2 29 -21 37 -12 4 -26 7 -31 8 -5 0 -11 6 -14 14 -3 8 0 11 5 8 6 -4 37
-9 69 -13z m-1519 0 c-3 -3 -12 -4 -19 -1 -8 3 -5 6 6 6 11 1 17 -2 13 -5z
m-548 -31 c0 -25 -1 -25 -8 -8 -5 11 -7 23 -4 28 8 14 13 7 12 -20z m103 -39
l-9 -39 -4 52 c-3 42 -2 50 9 40 9 -10 10 -24 4 -53z m1296 41 c-3 -3 -9 2
-12 12 -6 14 -5 15 5 6 7 -7 10 -15 7 -18z m452 13 c0 7 4 11 9 7 6 -3 32 -8
58 -11 95 -12 113 -19 113 -46 0 -18 -5 -20 -34 -15 -28 4 -35 2 -39 -14 -3
-10 -1 -22 4 -25 5 -3 9 -11 9 -17 0 -7 -7 -3 -15 7 -10 14 -26 19 -52 18 -28
-1 -34 1 -25 10 7 7 12 21 11 33 0 16 -2 15 -11 -7 -5 -16 -18 -29 -29 -29
-10 -1 -24 -2 -31 -3 -14 -1 -21 41 -7 49 6 4 3 12 -8 20 -17 13 -17 14 7 23
17 6 27 6 32 -2 5 -8 8 -7 8 2z m-482 -21 c15 6 15 5 3 -10 -14 -18 -36 -24
-26 -7 3 6 1 10 -4 10 -6 0 -11 8 -11 18 1 16 1 16 11 0 6 -11 16 -15 27 -11z
m1339 9 c0 -8 -9 -14 -19 -13 -18 1 -18 2 -2 14 22 16 21 16 21 -1z m-2737
-11 c0 -8 -4 -15 -10 -15 -5 0 -10 7 -10 15 0 8 5 15 10 15 6 0 10 -7 10 -15z
m815 5 c3 -5 1 -10 -4 -10 -6 0 -11 5 -11 10 0 6 2 10 4 10 3 0 8 -4 11 -10z
m45 -10 c0 -5 -8 -10 -17 -10 -15 0 -16 2 -3 10 19 12 20 12 20 0z m495 -10
c3 -6 -1 -7 -9 -4 -18 7 -21 14 -7 14 6 0 13 -4 16 -10z m-2372 -15 c-3 -9 -8
-14 -10 -11 -3 3 -2 9 2 15 9 16 15 13 8 -4z m1957 5 c0 -5 -2 -10 -4 -10 -3
0 -8 5 -11 10 -3 6 -1 10 4 10 6 0 11 -4 11 -10z m40 -10 c0 -5 -7 -7 -15 -4
-8 4 -12 10 -9 15 6 11 24 2 24 -11z m1764 5 c8 -22 -29 -39 -54 -25 -12 6
-31 9 -43 6 -15 -4 -13 -2 6 7 15 7 24 16 21 20 -4 4 9 7 28 7 23 0 38 -6 42
-15z m-2691 -2 c-7 -2 -13 -12 -13 -21 0 -13 2 -14 9 -4 7 11 9 10 14 -3 4 -9
3 -13 -3 -10 -6 3 -10 2 -10 -4 0 -5 9 -12 19 -16 11 -3 23 -15 26 -26 7 -21
50 -43 66 -33 5 3 9 -1 9 -8 0 -9 -14 -13 -48 -12 -66 2 -92 12 -92 35 0 10
-4 19 -10 19 -5 0 -7 6 -4 14 3 8 -3 16 -15 19 -12 3 -21 11 -20 19 0 10 2 10
6 1 2 -7 9 -13 14 -13 6 0 7 6 4 13 -4 6 1 3 9 -7 9 -11 16 -26 16 -33 0 -7 6
-13 14 -13 12 0 12 6 -2 38 -12 29 -21 38 -34 34 -10 -2 -18 0 -18 5 0 5 17
10 38 10 20 1 31 -1 25 -4z m377 -8 c0 -8 -4 -15 -10 -15 -5 0 -10 7 -10 15 0
8 5 15 10 15 6 0 10 -7 10 -15z m760 -25 c0 -5 -8 -10 -17 -10 -15 0 -16 2 -3
10 19 12 20 12 20 0z m854 -26 c-12 -18 -14 -27 -5 -38 16 -19 -8 -37 -40 -30
-13 3 -35 5 -48 5 -15 -1 -34 10 -50 28 -14 15 -33 30 -41 33 -10 3 -8 6 8 10
12 4 22 2 22 -4 0 -12 41 -58 52 -58 4 0 5 7 2 15 -7 18 12 20 19 3 4 -10 8
-9 16 2 9 13 11 12 11 -5 1 -20 1 -20 15 -1 8 10 12 23 9 28 -3 4 2 11 10 14
9 3 16 13 16 21 0 8 4 11 10 8 6 -4 4 -16 -6 -31z m-1514 16 c0 -5 -2 -10 -4
-10 -3 0 -8 5 -11 10 -3 6 -1 10 4 10 6 0 11 -4 11 -10z m-99 -32 c0 -13 3
-17 6 -10 7 17 23 15 23 -3 0 -9 -9 -15 -25 -15 -20 0 -25 5 -25 25 0 31 20
33 21 3z m896 16 c-3 -3 -12 -4 -19 -1 -8 3 -5 6 6 6 11 1 17 -2 13 -5z m608
-4 c3 -5 -1 -10 -9 -10 -9 0 -16 5 -16 10 0 6 4 10 9 10 6 0 13 -4 16 -10z
m-1539 -39 c-2 -14 -5 -27 -5 -29 -1 -2 -6 0 -11 3 -8 5 -7 12 2 23 10 12 10
16 1 19 -7 3 -13 9 -13 14 0 4 7 6 15 3 10 -4 14 -15 11 -33z m107 9 c-3 -11
-7 -20 -9 -20 -2 0 -4 9 -4 20 0 11 4 20 9 20 5 0 7 -9 4 -20z m591 8 c-5 -8
-2 -9 11 -5 9 4 24 2 31 -4 11 -9 14 -9 14 0 0 7 5 9 12 5 7 -4 21 -8 32 -9
12 -1 37 -6 56 -10 19 -5 49 -9 67 -9 17 -1 29 -4 26 -8 -2 -5 1 -8 6 -8 6 0
11 -4 11 -10 0 -5 -7 -10 -16 -10 -10 0 -14 -6 -10 -15 3 -8 1 -15 -4 -15 -5
0 -12 9 -15 20 -8 24 -28 26 -45 5 -10 -12 -10 -18 1 -32 13 -16 12 -17 -4 -4
-13 10 -16 22 -12 39 3 14 2 21 -4 18 -5 -4 -13 -1 -16 5 -5 7 -12 3 -22 -10
-8 -12 -19 -18 -25 -15 -7 5 -9 0 -6 -14 4 -12 3 -24 -1 -27 -4 -2 -8 1 -8 8
0 7 -3 26 -7 42 -5 24 -4 26 4 10 l10 -20 -3 20 c-3 25 -46 33 -59 11 -5 -9
-15 -13 -25 -9 -12 5 -14 3 -8 -7 5 -9 4 -11 -3 -6 -7 4 -12 16 -12 26 0 10
-5 20 -12 22 -18 6 0 28 23 28 13 0 18 -4 13 -12z m1829 -8 c3 -11 1 -18 -4
-14 -5 3 -9 0 -9 -5 0 -6 -4 -11 -9 -11 -5 0 -4 11 2 25 14 30 13 30 20 5z
m-48 -10 c3 -5 1 -10 -4 -10 -6 0 -11 5 -11 10 0 6 2 10 4 10 3 0 8 -4 11 -10z
m-2366 -11 c6 10 10 9 15 -4 11 -29 7 -34 -26 -31 -50 6 -88 17 -88 27 0 13
44 11 59 -3 10 -11 11 -9 5 7 -7 18 -6 19 10 6 14 -12 19 -12 25 -2z m1621
-21 c0 7 5 10 10 7 6 -4 8 -11 5 -16 -4 -5 -1 -9 4 -9 6 0 11 5 11 11 0 5 5 7
10 4 23 -14 -4 -25 -52 -21 -58 5 -61 7 -42 24 9 8 14 9 14 2 0 -6 4 -9 10 -5
5 3 7 13 4 23 -3 9 2 6 10 -8 8 -14 15 -19 16 -12z m-1921 1 c-14 -8 -29 -3
-29 11 0 4 9 6 21 3 15 -4 17 -8 8 -14z m2696 -12 c-8 -4 -20 -5 -27 -1 -7 4
-8 3 -4 -4 4 -7 -6 -18 -25 -27 -33 -18 -49 -14 -31 8 7 8 9 17 5 20 -3 4 -1
7 5 7 5 0 12 -6 15 -12 2 -7 7 -10 11 -6 4 3 3 15 -3 26 -10 18 -8 18 30 8 29
-7 35 -12 24 -19z m88 6 c-6 -15 -39 -18 -47 -4 -7 10 11 19 35 18 10 -1 15
-7 12 -14z m-2728 -3 c3 -5 1 -10 -4 -10 -6 0 -11 5 -11 10 0 6 2 10 4 10 3 0
8 -4 11 -10z m886 -17 c5 -14 7 -34 3 -42 -9 -21 -11 -61 -4 -61 3 0 10 4 16
10 6 6 14 2 22 -11 12 -19 11 -20 -20 -15 -18 3 -38 13 -45 22 -12 16 -18 12
-14 -9 1 -4 -8 -3 -20 4 l-21 11 23 12 c20 10 26 9 37 -3 10 -14 11 -12 6 12
-4 17 -2 27 5 27 6 0 11 4 11 10 0 5 -7 7 -15 4 -8 -4 -15 -1 -15 6 0 6 5 8
10 5 7 -4 9 2 4 19 -8 34 4 33 17 -1z m-792 2 c10 -11 -10 -17 -22 -7 -8 7
-16 9 -20 6 -3 -3 -14 -1 -24 5 -14 9 -10 10 21 6 22 -3 42 -8 45 -10z m895
-50 c18 -16 36 -16 36 0 0 12 4 11 20 -5 25 -25 26 -34 1 -21 -15 8 -20 7 -25
-5 -5 -12 -10 -14 -20 -5 -17 14 -29 2 -15 -16 8 -9 8 -13 1 -13 -6 0 -14 9
-17 20 -4 11 -11 18 -16 14 -5 -3 -6 -11 -2 -17 11 -17 12 -37 3 -37 -4 0 -10
8 -13 18 -2 9 -8 25 -12 35 -4 10 -4 17 1 16 20 -3 28 2 15 10 -12 8 -12 14
-1 42 l14 32 10 -29 c5 -16 14 -33 20 -39z m993 51 c3 -3 -3 -6 -15 -6 -12 0
-25 0 -29 -1 -4 0 -9 4 -11 9 -3 11 44 9 55 -2z m-1847 -6 c12 -7 10 -9 -8 -7
-12 0 -22 5 -22 9 0 11 12 10 30 -2z m710 -29 c7 -15 6 -20 -6 -25 -12 -4 -15
-2 -10 9 3 9 -3 20 -14 27 -11 7 -20 16 -20 21 0 13 39 -12 50 -32z m10 29 c0
-5 -4 -10 -10 -10 -5 0 -10 5 -10 10 0 6 5 10 10 10 6 0 10 -4 10 -10z m180
-10 c0 -5 -4 -10 -10 -10 -5 0 -10 5 -10 10 0 6 5 10 10 10 6 0 10 -4 10 -10z
m-853 -6 c-3 -3 -12 -4 -19 -1 -8 3 -5 6 6 6 11 1 17 -2 13 -5z m117 -10 c9
-3 16 -10 16 -16 0 -5 -4 -7 -8 -4 -5 3 -24 8 -43 11 -18 3 -35 8 -38 11 -7 6
55 5 73 -2z m519 -19 c-7 -21 -13 -19 -13 6 0 11 4 18 10 14 5 -3 7 -12 3 -20z
m-1719 -1 c3 -8 2 -12 -4 -9 -6 3 -10 10 -10 16 0 14 7 11 14 -7z m1246 -5 c0
-6 -4 -7 -10 -4 -5 3 -10 11 -10 16 0 6 5 7 10 4 6 -3 10 -11 10 -16z m1615
11 c3 -5 1 -10 -4 -10 -6 0 -11 5 -11 10 0 6 2 10 4 10 3 0 8 -4 11 -10z
m-1513 -16 c40 -9 87 -18 103 -20 59 -9 76 -15 70 -24 -4 -6 -13 -7 -24 -1 -9
5 -29 8 -44 7 -15 -2 -27 0 -27 4 0 5 -38 13 -85 20 -47 7 -85 16 -85 21 0 12
7 12 92 -7z m1205 -18 c3 -5 1 -6 -6 -2 -6 4 -14 0 -17 -8 -3 -9 -11 -16 -17
-16 -6 0 -7 3 -4 7 4 3 -1 12 -11 19 -15 12 -13 14 16 12 19 -1 36 -7 39 -12z
m53 -16 c0 -11 -4 -20 -10 -20 -5 0 -10 5 -10 11 0 5 -4 7 -10 4 -5 -3 -10 1
-10 9 0 9 9 16 20 16 13 0 20 -7 20 -20z m-635 -39 c1 -17 -3 -19 -22 -15 -12
3 -34 7 -48 8 -26 1 -36 16 -10 16 8 0 15 5 15 10 0 6 7 10 15 10 8 0 15 5 15
12 0 20 34 -19 35 -41z m585 18 c0 -6 -4 -7 -10 -4 -5 3 -10 11 -10 16 0 6 5
7 10 4 6 -3 10 -11 10 -16z m-927 1 c9 0 17 -4 17 -10 0 -10 -25 -9 -45 1 -5
2 -24 4 -42 4 -17 0 -29 3 -26 8 3 5 21 6 42 3 20 -3 44 -5 54 -6z m57 -22 c0
-13 -23 -5 -28 10 -2 7 2 10 12 6 9 -3 16 -11 16 -16z m896 3 c-4 -5 -1 -12 4
-14 6 -3 5 -4 -2 -3 -15 3 -23 26 -8 26 6 0 9 -4 6 -9z m41 1 c8 -5 9 -13 3
-22 -8 -13 -10 -13 -10 2 0 9 -6 19 -12 21 -7 3 -8 6 -3 6 6 0 15 -3 22 -7z
m47 -7 c-5 -12 -2 -14 12 -8 17 6 17 5 5 -10 -13 -16 -14 -16 -26 0 -14 18
-11 33 5 33 5 0 7 -7 4 -15z m-881 -10 c26 -3 45 -11 42 -16 -4 -5 -10 -7 -14
-5 -4 3 -30 8 -57 11 -27 4 -53 11 -58 16 -5 5 1 7 15 5 13 -3 45 -7 72 -11z
m1277 6 c0 -5 3 -17 6 -25 5 -12 2 -15 -10 -10 -17 7 -22 44 -6 44 6 0 10 -4
10 -9z m-350 -22 c0 -11 -4 -18 -10 -14 -5 3 -7 12 -3 20 7 21 13 19 13 -6z
m60 -1 c0 -16 -3 -19 -11 -11 -6 6 -8 16 -5 22 11 17 16 13 16 -11z m394 -12
c-10 -8 -21 -12 -24 -9 -3 3 1 8 8 10 6 3 12 12 12 21 0 12 3 13 12 4 9 -9 8
-15 -8 -26z m-510 -16 c10 -13 9 -13 -6 -1 -10 7 -18 21 -17 30 0 13 1 14 6 1
3 -8 11 -22 17 -30z m86 30 c0 -5 -5 -10 -11 -10 -5 0 -7 5 -4 10 3 6 8 10 11
10 2 0 4 -4 4 -10z m-761 -31 c13 -7 10 -9 -14 -7 -16 1 -36 6 -42 11 -7 5
-18 7 -25 5 -7 -3 -22 -1 -33 4 -13 5 1 6 39 3 32 -3 66 -10 75 -16z m568 -1
c2 -17 0 -19 -7 -8 -5 8 -6 18 -4 22 8 12 10 10 11 -14z m59 6 c18 -14 18 -15
-3 -4 -14 6 -23 7 -23 1 0 -5 5 -11 12 -13 14 -5 2 -28 -14 -28 -6 0 -8 3 -5
7 4 3 2 12 -4 19 -11 13 -5 34 10 34 4 0 16 -7 27 -16z m179 -13 c-3 -12 -13
-21 -21 -21 -13 0 -13 2 0 16 9 8 16 20 16 26 0 6 3 9 6 5 3 -3 3 -15 -1 -26z
m-2138 4 c0 -8 -4 -12 -9 -9 -5 3 -6 10 -3 15 9 13 12 11 12 -6z m2049 1 c3
-8 12 -12 20 -9 17 6 19 -13 2 -23 -6 -4 -14 -2 -16 4 -2 7 -10 19 -19 27 -8
9 -10 15 -3 15 6 0 13 -6 16 -14z m-1826 -20 c0 -3 -4 -8 -10 -11 -5 -3 -10
-1 -10 4 0 6 5 11 10 11 6 0 10 -2 10 -4z m-195 -16 c3 -5 1 -10 -4 -10 -6 0
-11 5 -11 10 0 6 2 10 4 10 3 0 8 -4 11 -10z m1959 -10 c7 0 13 -6 13 -14 0
-17 -49 -6 -55 14 -3 9 1 11 12 7 10 -4 23 -7 30 -7z m116 0 c0 -5 -4 -10 -10
-10 -5 0 -10 5 -10 10 0 6 5 10 10 10 6 0 10 -4 10 -10z m-2952 -105 c-3 -3
-9 2 -12 12 -6 14 -5 15 5 6 7 -7 10 -15 7 -18z m3996 -441 c3 -8 2 -12 -4 -9
-6 3 -10 10 -10 16 0 14 7 11 14 -7z m66 -4 c-20 -13 -33 -13 -25 0 3 6 14 10
23 10 15 0 15 -2 2 -10z m60 -5 c0 -8 -5 -15 -11 -15 -5 0 -7 5 -4 10 3 6 1
10 -6 10 -6 0 -9 -8 -6 -20 3 -11 0 -23 -5 -27 -6 -3 -8 -1 -4 5 3 6 2 14 -4
17 -8 5 -7 11 1 21 15 18 39 18 39 -1z m-4320 -11 c0 -8 -5 -12 -10 -9 -6 4
-8 11 -5 16 9 14 15 11 15 -7z m625 -3 c3 -5 1 -12 -5 -16 -5 -3 -10 1 -10 9
0 18 6 21 15 7z m3738 2 c-7 -2 -19 -2 -25 0 -7 3 -2 5 12 5 14 0 19 -2 13 -5z
m67 -4 c0 16 17 13 24 -5 3 -9 2 -12 -5 -9 -5 4 -17 1 -26 -7 -12 -9 -15 -9
-9 0 4 6 2 12 -3 12 -6 0 -11 5 -11 11 0 8 5 8 15 -1 10 -9 15 -9 15 -1z
m-198 -13 c6 4 6 -1 -1 -14 -8 -16 -7 -21 6 -26 9 -4 13 -9 10 -12 -3 -3 -16
1 -29 10 -12 9 -17 16 -10 16 9 0 11 8 8 23 -3 12 -3 16 0 9 3 -6 10 -9 16 -6z
m168 -18 c0 -7 -5 -6 -13 1 -8 6 -18 7 -22 3 -5 -4 -5 -2 -1 5 8 14 36 6 36
-9z m-61 -34 c1 11 4 17 7 13 4 -3 3 -14 0 -23 -6 -16 -8 -16 -23 -2 -9 10
-12 21 -7 29 6 10 10 7 15 -11 5 -19 7 -20 8 -6z m28 -6 c-3 -7 -5 -2 -5 12 0
14 2 19 5 13 2 -7 2 -19 0 -25z m66 18 c4 -10 1 -13 -8 -9 -8 3 -12 9 -9 14 7
12 11 11 17 -5z m-138 -6 c-3 -5 -11 -10 -16 -10 -6 0 -7 5 -4 10 3 6 11 10
16 10 6 0 7 -4 4 -10z m-4345 -70 c0 -4 -6 -10 -14 -13 -10 -4 -12 0 -9 14 5
18 23 18 23 -1z m420 -140 c0 -5 -5 -10 -11 -10 -5 0 -7 5 -4 10 3 6 8 10 11
10 2 0 4 -4 4 -10z m-240 -65 c0 -8 -4 -15 -10 -15 -5 0 -10 7 -10 15 0 8 5
15 10 15 6 0 10 -7 10 -15z m95 -75 c3 -5 1 -10 -4 -10 -6 0 -11 5 -11 10 0 6
2 10 4 10 3 0 8 -4 11 -10z m2491 -136 c-5 -13 -10 -14 -18 -6 -6 6 -8 18 -4
28 5 13 10 14 18 6 6 -6 8 -18 4 -28z m-336 1 c0 -8 -4 -15 -10 -15 -5 0 -10
7 -10 15 0 8 5 15 10 15 6 0 10 -7 10 -15z m-127 -21 c-4 -10 -9 -12 -15 -6
-12 12 -1 35 12 27 5 -3 6 -13 3 -21z m-856 -26 c-3 -8 -6 -5 -6 6 -1 11 2 17
5 13 3 -3 4 -12 1 -19z m1543 13 c0 -5 -7 -12 -16 -15 -14 -5 -15 -4 -4 9 14
17 20 19 20 6z m-1380 -5 c0 -3 -4 -8 -10 -11 -5 -3 -10 -1 -10 4 0 6 5 11 10
11 6 0 10 -2 10 -4z m273 -143 c-4 -10 -9 -11 -19 -2 -11 9 -12 15 -3 26 14
17 31 -1 22 -24z"/>
<path d="M2800 2740 c0 -5 5 -10 11 -10 5 0 7 5 4 10 -3 6 -8 10 -11 10 -2 0
-4 -4 -4 -10z"/>
<path d="M2730 2719 c0 -6 8 -8 19 -4 11 3 22 1 26 -5 3 -5 1 -10 -6 -10 -7 0
-10 -2 -7 -5 8 -8 38 6 38 17 0 5 -4 7 -9 3 -5 -3 -12 -1 -16 5 -8 13 -45 13
-45 -1z"/>
<path d="M2819 2713 c-12 -16 -12 -17 2 -5 13 10 18 10 26 0 16 -21 22 -57 9
-62 -6 -2 -3 -5 7 -5 20 -1 18 19 -5 67 -14 27 -21 28 -39 5z"/>
<path d="M2900 2720 c0 -5 5 -10 11 -10 5 0 7 5 4 10 -3 6 -8 10 -11 10 -2 0
-4 -4 -4 -10z"/>
<path d="M2930 2700 c0 -5 5 -10 11 -10 5 0 7 5 4 10 -3 6 -8 10 -11 10 -2 0
-4 -4 -4 -10z"/>
<path d="M2676 2683 c10 -7 23 -13 28 -12 6 0 5 3 -2 6 -6 2 -10 8 -8 12 3 4
-4 7 -15 7 -19 0 -19 -1 -3 -13z"/>
<path d="M2725 2690 c-3 -6 1 -7 9 -4 18 7 21 14 7 14 -6 0 -13 -4 -16 -10z"/>
<path d="M3053 2687 c-3 -5 0 -14 5 -19 12 -12 72 7 72 22 0 11 -70 8 -77 -3z
m32 -7 c3 -5 2 -10 -4 -10 -5 0 -13 5 -16 10 -3 6 -2 10 4 10 5 0 13 -4 16
-10z"/>
<path d="M2760 2669 c-12 -8 -10 -9 7 -4 19 5 22 3 17 -12 -5 -14 -4 -15 4 -3
19 25 0 38 -28 19z"/>
<path d="M2895 2665 c11 -8 25 -19 32 -25 17 -14 23 -13 17 4 -3 8 -20 19 -37
25 -29 10 -30 9 -12 -4z"/>
<path d="M2726 2648 c5 -8 1 -9 -12 -4 -14 5 -16 4 -7 -5 6 -6 16 -8 22 -5 14
9 14 26 0 26 -5 0 -7 -5 -3 -12z"/>
<path d="M2618 2643 c7 -3 16 -2 19 1 4 3 -2 6 -13 5 -11 0 -14 -3 -6 -6z"/>
<path d="M2886 2634 c-8 -20 -8 -24 2 -24 4 0 8 9 9 20 2 24 -3 26 -11 4z"/>
<path d="M2571 2630 c0 -8 5 -25 12 -37 9 -16 16 -20 27 -13 13 8 13 10 -2 10
-9 0 -21 12 -26 28 -6 15 -11 20 -11 12z"/>
<path d="M2590 2635 c0 -19 15 -32 33 -29 27 4 34 14 11 14 -11 0 -25 5 -32
12 -7 7 -12 8 -12 3z"/>
<path d="M2820 2629 c0 -5 5 -7 10 -4 6 3 10 8 10 11 0 2 -4 4 -10 4 -5 0 -10
-5 -10 -11z"/>
<path d="M2758 2623 c6 -2 18 -2 25 0 6 3 1 5 -13 5 -14 0 -19 -2 -12 -5z"/>
<path d="M2693 2613 c9 -2 23 -2 30 0 6 3 -1 5 -18 5 -16 0 -22 -2 -12 -5z"/>
<path d="M2785 2603 c3 -4 -5 -12 -17 -19 l-23 -12 26 1 c24 2 33 19 16 32 -4
3 -5 2 -2 -2z"/>
<path d="M2816 2593 c-6 -14 -5 -15 5 -6 7 7 10 15 7 18 -3 3 -9 -2 -12 -12z"/>
<path d="M2636 2591 c-3 -4 6 -6 19 -3 14 2 25 6 25 8 0 8 -39 4 -44 -5z"/>
<path d="M2876 2588 c3 -5 10 -6 15 -3 13 9 11 12 -6 12 -8 0 -12 -4 -9 -9z"/>
<path d="M2700 2581 c0 -7 -6 -11 -13 -8 -6 2 -18 -2 -25 -10 -12 -12 -9 -13
15 -8 19 5 24 4 15 -3 -11 -7 -10 -11 4 -16 9 -3 19 -4 22 -1 3 3 0 5 -8 5 -9
0 -10 4 -2 13 7 8 7 18 2 27 -8 12 -10 12 -10 1z"/>
<path d="M2854 2582 c4 -7 1 -12 -9 -12 -9 0 -13 -4 -10 -10 3 -5 10 -10 15
-10 13 0 20 29 8 36 -7 4 -8 3 -4 -4z"/>
<path d="M2627 2563 c-10 -9 -9 -23 1 -23 5 0 9 7 9 15 0 17 -1 18 -10 8z"/>
<path d="M2790 2546 c7 -7 13 -7 20 0 6 6 3 10 -10 10 -13 0 -16 -4 -10 -10z"/>
<path d="M2395 2520 c-3 -5 -1 -10 4 -10 6 0 11 5 11 10 0 6 -2 10 -4 10 -3 0
-8 -4 -11 -10z"/>
<path d="M2615 2510 c3 -5 8 -10 11 -10 2 0 4 5 4 10 0 6 -5 10 -11 10 -5 0
-7 -4 -4 -10z"/>
<path d="M2688 2513 c7 -3 16 -2 19 1 4 3 -2 6 -13 5 -11 0 -14 -3 -6 -6z"/>
<path d="M2628 2492 c-16 -2 -28 -8 -28 -13 0 -6 9 -7 22 -3 21 6 22 6 8 -12
-13 -17 -13 -18 0 -8 17 13 70 27 70 19 0 -3 -10 -10 -22 -15 -22 -8 -22 -9 4
-9 34 -1 43 13 22 33 -19 19 -34 21 -34 4 0 -8 -3 -9 -8 -3 -4 6 -19 9 -34 7z"/>
<path d="M1295 2600 c3 -5 8 -10 11 -10 2 0 4 5 4 10 0 6 -5 10 -11 10 -5 0
-7 -4 -4 -10z"/>
<path d="M1324 2599 c-3 -5 -2 -9 3 -10 4 0 18 -2 30 -3 12 -1 20 1 18 4 -8
12 -45 19 -51 9z"/>
<path d="M1108 2573 c6 -2 18 -2 25 0 6 3 1 5 -13 5 -14 0 -19 -2 -12 -5z"/>
<path d="M1040 2530 c0 -5 7 -7 15 -4 8 4 15 8 15 10 0 2 -7 4 -15 4 -8 0 -15
-4 -15 -10z"/>
<path d="M1037 2496 c-4 -10 -13 -13 -24 -10 -15 5 -16 4 -3 -5 11 -7 19 -6
29 4 8 8 12 17 9 20 -3 3 -8 -1 -11 -9z"/>
<path d="M1096 2493 c-6 -14 -5 -15 5 -6 7 7 10 15 7 18 -3 3 -9 -2 -12 -12z"/>
<path d="M1356 2475 c-9 -23 -8 -25 9 -25 17 0 19 9 6 28 -7 11 -10 10 -15 -3z"/>
<path d="M1039 2463 c-13 -16 -12 -17 4 -4 9 7 17 15 17 17 0 8 -8 3 -21 -13z"/>
<path d="M1097 2455 c-4 -8 -3 -16 1 -19 4 -3 9 4 9 15 2 23 -3 25 -10 4z"/>
<path d="M1241 2461 c3 -8 14 -19 24 -25 11 -6 24 -16 30 -21 5 -6 9 -8 8 -6
-2 2 2 10 8 17 8 9 7 18 -1 31 -10 16 -11 16 -7 -4 3 -13 1 -23 -4 -23 -5 0
-9 5 -9 11 0 5 -4 8 -9 4 -5 -3 -17 3 -27 12 -12 12 -16 13 -13 4z"/>
<path d="M1210 2449 c0 -5 5 -7 10 -4 6 3 10 8 10 11 0 2 -4 4 -10 4 -5 0 -10
-5 -10 -11z"/>
<path d="M1328 2435 c-3 -14 -1 -25 3 -25 5 0 9 11 9 25 0 14 -2 25 -4 25 -2
0 -6 -11 -8 -25z"/>
<path d="M667 2383 c-4 -3 -7 -11 -7 -17 0 -6 5 -5 12 2 6 6 9 14 7 17 -3 3
-9 2 -12 -2z"/>
<path d="M781 2370 c-9 -5 -4 -7 13 -7 29 0 32 2 13 10 -8 3 -20 2 -26 -3z"/>
<path d="M891 2364 c0 -11 3 -14 6 -6 3 7 2 16 -1 19 -3 4 -6 -2 -5 -13z"/>
<path d="M1018 2373 c7 -3 16 -2 19 1 4 3 -2 6 -13 5 -11 0 -14 -3 -6 -6z"/>
<path d="M540 2212 c0 -7 -7 -12 -15 -12 -8 0 -15 -7 -15 -15 0 -13 4 -12 22
5 12 11 18 23 15 27 -4 3 -7 1 -7 -5z"/>
<path d="M607 2205 c-6 -15 10 -32 20 -21 4 3 1 6 -5 6 -6 0 -9 7 -6 15 4 8 4
15 1 15 -3 0 -7 -7 -10 -15z"/>
<path d="M680 2188 c0 -9 -6 -19 -12 -21 -10 -4 -10 -6 0 -6 14 -1 28 26 18
36 -3 4 -6 -1 -6 -9z"/>
<path d="M731 2174 c0 -11 3 -14 6 -6 3 7 2 16 -1 19 -3 4 -6 -2 -5 -13z"/>
<path d="M487 2160 c3 -11 7 -20 9 -20 2 0 4 9 4 20 0 11 -4 20 -9 20 -5 0 -7
-9 -4 -20z"/>
<path d="M580 2159 c0 -5 5 -7 10 -4 6 3 10 8 10 11 0 2 -4 4 -10 4 -5 0 -10
-5 -10 -11z"/>
<path d="M885 2160 c3 -5 8 -10 11 -10 2 0 4 5 4 10 0 6 -5 10 -11 10 -5 0 -7
-4 -4 -10z"/>
<path d="M470 2152 c0 -6 -7 -12 -15 -14 -10 -2 -12 -8 -6 -17 7 -11 11 -9 21
9 6 12 9 24 6 28 -3 3 -6 0 -6 -6z"/>
<path d="M838 2153 c6 -2 18 -2 25 0 6 3 1 5 -13 5 -14 0 -19 -2 -12 -5z"/>
<path d="M600 2140 c0 -5 5 -10 11 -10 5 0 7 5 4 10 -3 6 -8 10 -11 10 -2 0
-4 -4 -4 -10z"/>
<path d="M801 2133 c-1 -7 -8 -10 -18 -6 -12 3 -10 -1 5 -12 27 -20 33 -18 21
10 -4 11 -8 15 -8 8z"/>
<path d="M871 2124 c0 -11 3 -14 6 -6 3 7 2 16 -1 19 -3 4 -6 -2 -5 -13z"/>
<path d="M981 2124 c0 -11 3 -14 6 -6 3 7 2 16 -1 19 -3 4 -6 -2 -5 -13z"/>
<path d="M1030 2130 c-9 -6 -10 -10 -3 -10 6 0 15 5 18 10 8 12 4 12 -15 0z"/>
<path d="M626 2121 c-4 -5 -3 -17 1 -27 4 -12 3 -15 -5 -10 -7 4 -12 15 -12
24 0 10 -3 13 -8 7 -4 -5 -14 -10 -22 -10 -8 0 -19 5 -23 10 -4 6 -6 -3 -5
-20 3 -28 5 -30 43 -27 60 4 74 6 73 12 -2 21 7 25 47 25 28 -1 45 3 45 10 0
7 -13 11 -33 10 -47 -3 -78 -15 -72 -26 4 -5 2 -9 -4 -9 -19 0 -21 19 -4 29
16 9 16 10 1 11 -9 0 -19 -4 -22 -9z m-26 -41 c0 -5 -9 -8 -20 -7 -20 1 -25 8
-14 20 8 7 34 -3 34 -13z"/>
<path d="M916 2103 c-12 -13 -6 -25 10 -19 11 4 15 2 11 -7 -3 -8 3 -12 17
-12 23 1 30 9 23 28 -4 9 -6 8 -6 -2 -1 -11 -6 -10 -25 2 -13 9 -26 13 -30 10z"/>
<path d="M1301 2084 c0 -11 3 -14 6 -6 3 7 2 16 -1 19 -3 4 -6 -2 -5 -13z"/>
<path d="M880 2080 c0 -5 5 -10 10 -10 6 0 10 5 10 10 0 6 -4 10 -10 10 -5 0
-10 -4 -10 -10z"/>
<path d="M1317 2037 c3 -15 9 -27 14 -27 13 0 11 13 -5 35 -13 18 -14 18 -9
-8z"/>
<path d="M1422 2034 c-11 -12 -9 -13 8 -11 24 4 52 27 32 27 -7 0 -12 -6 -12
-12 0 -10 -2 -10 -8 -2 -5 9 -11 8 -20 -2z"/>
<path d="M1100 1996 c0 -19 4 -23 20 -19 11 3 20 12 20 20 0 13 -2 13 -17 2
-15 -12 -16 -12 -10 4 3 9 2 17 -3 17 -6 0 -10 -11 -10 -24z"/>
<path d="M1822 2011 c-8 -5 -12 -16 -10 -25 2 -12 6 -10 15 9 6 14 10 25 10
25 -1 0 -8 -4 -15 -9z"/>
<path d="M1780 1995 c0 -8 2 -15 4 -15 2 0 6 7 10 15 3 8 1 15 -4 15 -6 0 -10
-7 -10 -15z"/>
<path d="M1850 1990 c0 -5 7 -7 15 -4 8 4 15 8 15 10 0 2 -7 4 -15 4 -8 0 -15
-4 -15 -10z"/>
<path d="M1570 1960 c0 -5 5 -10 10 -10 6 0 10 5 10 10 0 6 -4 10 -10 10 -5 0
-10 -4 -10 -10z"/>
<path d="M1680 1952 c-23 -10 -22 -69 1 -75 10 -3 20 0 22 7 3 8 8 7 20 -2 9
-8 21 -11 26 -8 5 4 12 2 16 -4 3 -5 11 -10 16 -10 6 0 8 4 5 9 -4 5 -3 11 1
14 5 2 2 2 -4 1 -7 -2 -13 1 -13 6 0 9 15 14 33 11 4 -1 18 5 30 14 23 16 12
21 -13 5 -16 -10 -44 6 -35 20 3 5 1 11 -4 15 -6 3 -8 -5 -5 -20 6 -32 -12
-33 -20 -1 -6 24 -7 24 -34 10 -35 -18 -48 -18 -32 1 14 16 13 17 -10 7z m63
-39 c-4 -11 -3 -14 5 -9 7 4 12 3 12 -2 0 -19 -14 -21 -32 -5 -15 14 -21 15
-27 4 -6 -9 -11 -10 -15 -2 -4 6 4 13 19 17 14 3 25 10 25 16 0 5 4 7 10 3 5
-3 6 -13 3 -22z"/>
<path d="M1921 1930 c0 -8 4 -24 9 -35 5 -13 9 -14 9 -5 0 8 -4 24 -9 35 -5
13 -9 14 -9 5z"/>
<path d="M1855 1908 c-42 -21 -57 -37 -49 -50 12 -18 44 -7 50 17 7 27 24 34
24 10 0 -8 -4 -15 -10 -15 -5 0 -10 -7 -10 -15 0 -24 18 -17 27 11 8 23 10 25
22 10 11 -14 11 -16 -3 -16 -9 0 -16 -4 -16 -9 0 -5 11 -8 25 -8 13 0 22 3 20
8 -8 11 16 23 24 12 9 -14 41 -24 41 -13 0 6 -9 15 -19 22 -10 6 -17 18 -14
25 3 7 1 13 -5 13 -5 0 -12 -9 -15 -20 -7 -26 -23 -26 -30 1 -3 12 -10 18 -16
14 -6 -3 -11 -2 -11 4 0 5 6 12 13 14 6 3 8 5 2 5 -5 0 -28 -9 -50 -20z"/>
<path d="M1645 1909 c-4 -6 -5 -12 -2 -15 2 -3 7 2 10 11 7 17 1 20 -8 4z"/>
<path d="M2345 1910 c3 -5 8 -10 11 -10 2 0 4 5 4 10 0 6 -5 10 -11 10 -5 0
-7 -4 -4 -10z"/>
<path d="M1980 1898 c0 -9 5 -20 11 -23 17 -11 20 0 4 21 -13 17 -14 17 -15 2z"/>
<path d="M2223 1902 c-7 -4 -9 -13 -4 -21 6 -9 10 -7 14 8 3 12 4 21 4 21 -1
0 -7 -4 -14 -8z"/>
<path d="M2285 1893 c-14 -11 -15 -14 -4 -10 9 3 21 1 27 -5 8 -8 9 -5 5 11
-3 11 -6 21 -7 21 0 0 -10 -8 -21 -17z"/>
<path d="M2320 1901 c0 -6 4 -13 10 -16 6 -3 7 1 4 9 -7 18 -14 21 -14 7z"/>
<path d="M2246 1885 c-3 -8 -1 -15 4 -15 6 0 10 7 10 15 0 8 -2 15 -4 15 -2 0
-6 -7 -10 -15z"/>
<path d="M2463 1867 c0 -15 5 -30 11 -34 6 -3 8 -3 4 2 -4 4 -3 17 3 28 7 12
7 17 1 13 -6 -3 -12 0 -15 6 -2 7 -4 1 -4 -15z"/>
<path d="M2524 1878 c-3 -5 -3 -12 0 -15 3 -4 6 -1 6 5 0 7 5 12 11 12 6 0 8
-9 3 -22 -6 -21 -6 -21 11 -5 12 13 21 15 29 8 9 -8 13 -7 13 4 0 8 -4 12 -9
9 -4 -3 -8 -2 -8 3 0 12 -49 13 -56 1z"/>
<path d="M2410 1868 c0 -11 12 -10 30 2 12 7 10 9 -8 7 -12 0 -22 -5 -22 -9z"/>
<path d="M2496 1865 c-3 -8 -1 -15 4 -15 6 0 10 7 10 15 0 8 -2 15 -4 15 -2 0
-6 -7 -10 -15z"/>
<path d="M2616 1867 c3 -10 9 -15 12 -12 3 3 0 11 -7 18 -10 9 -11 8 -5 -6z"/>
<path d="M2284 1858 c-4 -6 -3 -8 2 -5 6 3 16 2 24 -4 11 -6 7 -9 -16 -9 -23
0 -34 -6 -42 -26 -7 -14 -17 -22 -23 -18 -7 4 -10 1 -7 -6 2 -8 10 -16 18 -18
7 -3 10 0 6 7 -12 19 29 12 52 -9 12 -12 22 -17 22 -11 0 5 11 12 25 15 28 7
33 24 10 32 -8 4 -12 11 -8 17 3 6 1 7 -5 3 -7 -4 -12 -1 -12 8 0 9 6 16 14
16 8 0 17 4 20 8 2 4 -4 8 -15 8 -10 0 -19 -4 -19 -8 0 -5 -9 -4 -19 2 -14 7
-22 7 -27 -2z m39 -48 c10 -12 9 -12 -5 -1 -20 15 -25 2 -6 -17 6 -6 9 -14 6
-18 -4 -3 -13 7 -22 23 -8 15 -15 22 -16 16 0 -7 -4 -13 -10 -13 -5 0 -7 7 -4
15 7 17 39 14 57 -5z"/>
<path d="M2703 1849 c3 -9 0 -22 -6 -28 -8 -8 -8 -11 0 -11 17 0 25 32 12 44
-9 8 -10 7 -6 -5z"/>
<path d="M2779 1838 c4 -12 13 -23 20 -24 6 -1 7 0 1 3 -5 2 -10 13 -10 24 0
10 -4 19 -10 19 -5 0 -6 -9 -1 -22z"/>
<path d="M2413 1843 c-7 -2 -13 -14 -13 -24 0 -11 -4 -18 -10 -14 -5 3 -7 12
-3 20 3 8 0 15 -6 15 -13 0 -14 -20 -2 -39 8 -12 12 -12 25 -2 9 8 16 20 16
28 0 10 6 13 16 9 8 -3 12 -2 9 4 -7 11 -13 11 -32 3z"/>
<path d="M2821 1824 c0 -11 3 -14 6 -6 3 7 2 16 -1 19 -3 4 -6 -2 -5 -13z"/>
<path d="M2096 1812 c-3 -6 -1 -14 5 -17 15 -10 25 3 12 16 -7 7 -13 7 -17 1z"/>
<path d="M2780 1798 c6 -7 5 -19 -2 -32 -8 -17 -8 -19 2 -9 7 6 18 9 25 7 7
-3 16 -1 20 5 3 7 0 8 -9 5 -16 -6 -23 10 -8 19 4 2 2 3 -4 1 -6 -1 -17 2 -23
7 -8 6 -8 5 -1 -3z"/>
<path d="M2673 1785 c-3 -9 -3 -19 1 -22 3 -4 6 1 6 10 0 8 6 18 13 20 9 4 9
6 -1 6 -7 1 -15 -6 -19 -14z"/>
<path d="M2716 1793 c6 -4 14 -15 17 -23 5 -11 6 -9 4 4 -1 11 -9 21 -17 23
-10 3 -11 2 -4 -4z"/>
<path d="M2905 1670 c-3 -5 -1 -10 4 -10 6 0 11 5 11 10 0 6 -2 10 -4 10 -3 0
-8 -4 -11 -10z"/>
<path d="M3835 2180 c4 -6 11 -8 16 -5 14 9 11 15 -7 15 -8 0 -12 -5 -9 -10z"/>
<path d="M3798 2117 c-5 -24 -4 -25 17 -11 12 8 25 11 28 7 4 -3 7 -1 7 6 0 8
-6 11 -17 7 -9 -4 -20 -2 -23 5 -4 6 -9 0 -12 -14z"/>
<path d="M3711 2101 c-11 -7 -11 -10 0 -17 10 -6 7 -10 -11 -15 -24 -7 -24 -7
-2 -8 12 -1 25 6 28 14 9 22 1 36 -15 26z"/>
<path d="M3745 2089 c-4 -6 -5 -12 -2 -15 2 -3 7 2 10 11 7 17 1 20 -8 4z"/>
<path d="M3636 2034 c-9 -23 -4 -24 17 -2 13 14 14 18 3 18 -8 0 -17 -7 -20
-16z"/>
<path d="M3595 2011 c-3 -12 -12 -18 -20 -15 -7 3 -30 -4 -52 -15 -21 -11 -32
-20 -25 -21 7 0 11 -3 9 -7 -3 -5 -1 -17 4 -28 7 -19 8 -19 8 1 1 16 9 23 32
28 19 3 28 10 23 17 -5 8 -9 8 -14 -1 -4 -7 -13 -9 -20 -5 -17 11 14 28 38 21
11 -4 21 2 29 19 6 14 7 25 3 25 -5 0 -11 -9 -15 -19z"/>
<path d="M3666 2017 c3 -10 9 -15 12 -12 3 3 0 11 -7 18 -10 9 -11 8 -5 -6z"/>
<path d="M314 1989 c0 -11 5 -18 10 -16 16 5 18 24 4 30 -9 3 -14 -3 -14 -14z"/>
<path d="M353 1973 c-3 -7 -13 -13 -22 -13 -14 -1 -14 -2 2 -11 9 -6 27 -7 38
-4 12 4 19 3 16 -2 -3 -5 -1 -15 5 -23 8 -12 9 -12 4 2 -3 11 6 27 27 44 18
15 24 25 15 21 -10 -4 -25 -10 -35 -14 -10 -4 -14 -3 -9 5 4 7 -2 10 -15 9
-12 -1 -24 -7 -26 -14z m22 -13 c-3 -5 -11 -10 -16 -10 -6 0 -7 5 -4 10 3 6
11 10 16 10 6 0 7 -4 4 -10z"/>
<path d="M2535 1970 c3 -5 8 -10 11 -10 2 0 4 5 4 10 0 6 -5 10 -11 10 -5 0
-7 -4 -4 -10z"/>
<path d="M2783 1935 c0 -8 4 -15 9 -15 4 0 8 4 8 9 0 6 -4 12 -8 15 -5 3 -9
-1 -9 -9z"/>
<path d="M3930 1796 c0 -2 9 -6 20 -9 11 -3 20 -1 20 4 0 5 -9 9 -20 9 -11 0
-20 -2 -20 -4z"/>
<path d="M3726 1684 c-3 -8 -1 -14 3 -14 5 0 12 6 14 13 3 7 6 6 6 -5 1 -9 5
-20 11 -23 6 -3 7 1 4 9 -4 12 0 16 17 16 31 0 18 10 -19 15 -20 3 -32 -1 -36
-11z"/>
<path d="M3680 1660 c-8 -5 -12 -11 -9 -14 2 -3 11 -1 19 4 8 5 12 11 9 14 -2
3 -11 1 -19 -4z"/>
<path d="M3675 1600 c3 -5 8 -10 11 -10 2 0 4 5 4 10 0 6 -5 10 -11 10 -5 0
-7 -4 -4 -10z"/>
<path d="M3580 1588 c0 -9 5 -20 11 -23 17 -11 20 0 4 21 -13 17 -14 17 -15 2z"/>
<path d="M3555 1570 c6 -19 -10 -30 -17 -10 -2 6 -9 6 -18 0 -21 -13 2 -35 27
-25 10 5 21 8 24 7 3 -1 4 10 1 23 -2 14 -9 25 -14 25 -5 0 -6 -9 -3 -20z"/>
<path d="M3855 1600 c3 -5 8 -10 11 -10 2 0 4 5 4 10 0 6 -5 10 -11 10 -5 0
-7 -4 -4 -10z"/>
<path d="M3420 1423 c0 -10 5 -25 11 -33 8 -11 9 -8 4 14 -5 23 -3 27 9 23 9
-4 16 -2 16 3 0 6 -9 10 -20 10 -12 0 -20 -7 -20 -17z"/>
<path d="M3474 1335 c3 -23 16 -31 26 -15 6 9 5 17 -3 22 -18 12 -25 10 -23
-7z"/>
<path d="M1312 1793 c9 -2 20 -13 23 -24 6 -19 35 -27 35 -9 0 6 4 10 9 10 5
0 8 -8 6 -17 -1 -10 0 -13 2 -6 2 6 10 14 18 17 10 3 13 -3 12 -22 -2 -19 3
-27 16 -27 19 0 20 3 4 44 -8 23 -16 29 -36 28 -14 -1 -32 -9 -39 -17 -12 -13
-13 -13 -8 3 3 10 2 15 -3 12 -5 -3 -12 -1 -16 5 -3 5 -14 9 -23 9 -16 -1 -16
-2 0 -6z m128 -57 c0 -3 -4 -8 -10 -11 -5 -3 -10 -1 -10 4 0 6 5 11 10 11 6 0
10 -2 10 -4z"/>
<path d="M1300 1771 c0 -5 7 -11 14 -14 10 -4 13 -1 9 9 -6 15 -23 19 -23 5z"/>
<path d="M1360 1740 c-1 -3 -3 -16 -4 -28 -2 -13 -8 -27 -15 -32 -9 -5 -6 -9
10 -13 28 -7 39 1 19 13 -8 5 -11 12 -7 17 5 4 12 1 16 -6 7 -11 10 -11 15 0
3 8 3 4 0 -8 -4 -18 -1 -23 15 -23 27 0 28 31 2 47 -15 10 -21 10 -24 0 -3 -7
-9 -1 -15 13 -6 14 -11 23 -12 20z"/>
<path d="M1698 1684 c-5 -4 -8 -16 -8 -28 0 -14 3 -17 11 -9 6 6 9 19 7 28 -1
9 -6 13 -10 9z"/>
<path d="M2036 1628 c5 -8 2 -9 -9 -5 -10 3 -17 2 -17 -2 0 -12 29 -23 41 -15
14 8 11 21 -7 28 -10 4 -13 2 -8 -6z"/>
<path d="M1750 1620 c0 -5 5 -10 10 -10 6 0 10 5 10 10 0 6 -4 10 -10 10 -5 0
-10 -4 -10 -10z"/>
<path d="M1841 1603 c-1 -17 16 -25 25 -12 4 7 3 9 -4 5 -5 -3 -13 0 -15 6 -4
9 -6 10 -6 1z"/>
<path d="M2065 1591 c3 -6 11 -9 16 -6 5 4 9 -5 9 -19 0 -28 7 -32 30 -15 13
9 13 10 -2 5 -12 -3 -18 2 -20 17 -2 12 -11 23 -22 25 -11 3 -16 0 -11 -7z"/>
<path d="M1920 1570 c0 -5 5 -10 10 -10 6 0 10 5 10 10 0 6 -4 10 -10 10 -5 0
-10 -4 -10 -10z"/>
<path d="M2010 1555 c12 -15 50 -16 50 -2 0 4 6 5 13 1 7 -4 8 -3 4 2 -4 4
-24 9 -43 11 -29 2 -34 0 -24 -12z"/>
<path d="M2110 1530 c-12 -7 -10 -9 7 -7 12 0 19 5 17 9 -6 10 -6 10 -24 -2z"/>
<path d="M3230 1759 c0 -5 5 -7 10 -4 6 3 10 8 10 11 0 2 -4 4 -10 4 -5 0 -10
-5 -10 -11z"/>
<path d="M3263 1748 c1 -15 6 -23 11 -18 4 4 4 16 -2 26 -9 16 -10 14 -9 -8z"/>
<path d="M3315 1729 c-4 -6 -5 -12 -2 -15 2 -3 7 2 10 11 7 17 1 20 -8 4z"/>
<path d="M2983 1763 c-20 -18 -21 -43 -2 -43 6 0 7 5 4 10 -8 13 20 42 30 32
5 -4 5 -1 1 6 -9 15 -9 15 -33 -5z"/>
<path d="M3060 1755 c-7 -9 -8 -15 -2 -15 5 0 12 7 16 15 3 8 4 15 2 15 -2 0
-9 -7 -16 -15z"/>
<path d="M3076 1725 c-3 -9 0 -15 9 -15 9 0 12 6 9 15 -4 8 -7 15 -9 15 -2 0
-5 -7 -9 -15z"/>
<path d="M3826 1736 c3 -8 12 -12 21 -9 12 5 12 7 1 14 -20 13 -28 11 -22 -5z"/>
<path d="M1184 1659 c0 -10 6 -19 13 -19 7 0 13 4 13 9 0 5 -6 13 -13 19 -10
8 -13 6 -13 -9z"/>
<path d="M2313 1619 c-2 -23 3 -25 10 -4 4 8 3 16 -1 19 -4 3 -9 -4 -9 -15z"/>
<path d="M2200 1626 c0 -2 7 -6 15 -10 8 -3 15 -1 15 4 0 6 -7 10 -15 10 -8 0
-15 -2 -15 -4z"/>
<path d="M2334 1559 c-4 -7 -2 -15 4 -17 7 -2 12 -10 12 -18 0 -8 5 -14 10
-14 13 0 13 3 -4 35 -10 19 -16 23 -22 14z"/>
<path d="M2420 1470 c0 -5 7 -10 16 -10 8 0 12 5 9 10 -3 6 -10 10 -16 10 -5
0 -9 -4 -9 -10z"/>
</g>
</svg>
